<svg width="61" height="62" viewBox="0 0 61 62" fill="none" xmlns="http://www.w3.org/2000/svg">
<path d="M29.3242 13.9742C22.1554 15.169 20.1642 21.6406 20.0645 24.7274H24.545C24.4452 23.7315 24.7242 21.382 26.6359 19.9482C29.0255 18.156 31.1164 17.5586 34.4021 19.3508C37.0306 20.7846 37.6878 23.7315 37.6878 25.0261H42.1683L41.2722 20.5456C40.2763 17.8573 36.493 12.7794 29.3242 13.9742Z" fill="#0044EB"/>
<path fill-rule="evenodd" clip-rule="evenodd" d="M25.1508 47.2518C25.6394 49.8546 25.3843 50.8792 24.8078 52.7753H43.1218C42.9563 52.2825 42.7657 51.7418 42.565 51.1749C41.3188 47.6484 39.7208 43.1261 40.8606 39.5268C41.4532 37.6557 43.0202 35.8259 44.0256 34.0815C44.0316 34.0713 44.0376 34.0606 44.0448 34.0504C46.5043 30.2479 47.4296 26.5124 47.1931 23.1419C46.757 16.9116 42.3768 12.0105 36.5653 10.1018C32.8901 8.89504 28.593 8.86039 24.214 10.4393C20.586 11.7476 18.2699 14.0231 17.1719 17.9116C15.814 22.7207 16.1461 23.3539 16.4108 23.8581C16.6611 24.3361 16.872 24.7381 16.5195 26.1438C15.9036 28.5985 13.1406 30.3316 13.2141 32.3155C13.7697 32.6489 14.658 32.9787 15.2548 33.3532L15.2542 33.3544C15.3263 33.3996 15.3881 33.4596 15.4354 33.5303C15.4828 33.601 15.5147 33.6809 15.529 33.7648C15.7339 34.8939 15.446 35.4842 15.2076 35.9734C15.0403 36.3163 14.9203 36.5631 15.6867 37.4215L15.6855 37.4227C15.7668 37.5134 15.8192 37.6262 15.8359 37.7468C15.8526 37.8674 15.8329 37.9902 15.7793 38.0996C15.7435 38.1719 15.6945 38.237 15.6348 38.2901C15.2435 38.6343 15.3259 38.7442 15.446 38.9055C15.6766 39.2137 15.9496 39.5787 16.041 40.1869C16.2023 41.2604 15.6766 42.1058 15.8958 43.1876C16.1712 44.5461 19.0764 44.0921 20.6153 43.9583C23.4983 43.7056 24.6191 44.4201 25.1508 47.2518ZM23.4267 53.1565C24.0796 50.9921 24.4584 50.1247 23.9613 47.4764C23.7618 46.4154 23.5169 45.7744 23.0802 45.4584C22.4589 45.0079 21.2665 45.1208 20.1911 45.2254C18.0823 45.4309 15.1748 45.7146 14.7112 43.432C14.4334 42.0645 14.9591 41.1475 14.842 40.3685C14.7966 40.0662 14.6246 39.8368 14.4794 39.6421C14.0301 39.0399 13.7016 38.6002 14.4131 37.7913C13.0128 35.9657 14.4997 35.747 14.3772 34.2535C13.7302 33.9058 12.8007 33.5605 12.2696 33.1423C12.1492 33.0475 12.069 32.9108 12.045 32.7594C11.7744 31.0879 12.7714 29.7939 13.7906 28.4719C14.4489 27.6188 15.1168 26.7514 15.3438 25.8475C15.5834 24.8928 15.4717 24.6802 15.3396 24.4275C14.9746 23.7315 14.5152 22.8563 16.0063 17.5771C17.2125 13.3045 19.8225 10.7231 23.8066 9.28693C28.4508 7.61242 33.0215 7.65304 36.9399 8.94044C43.2197 11.0021 47.9302 16.3243 48.4022 23.0564C48.6561 26.6725 47.677 30.6613 45.0705 34.6974C44.7264 35.3067 44.3124 35.9185 43.8912 36.5428C43.1361 37.6611 42.3541 38.8188 42.0124 39.896C40.9968 43.101 42.5202 47.4095 43.7078 50.7687C44.0083 51.62 44.2879 52.4115 44.5143 53.1565C44.5522 53.2495 44.5669 53.3504 44.5569 53.4503C44.5469 53.5503 44.5126 53.6463 44.457 53.73C44.4015 53.813 44.3264 53.8811 44.2384 53.9282C44.1503 53.9753 44.052 53.9999 43.9522 54H23.9894C23.8897 53.9999 23.7915 53.9751 23.7038 53.9277C23.616 53.8804 23.5413 53.812 23.4864 53.7288C23.4307 53.6454 23.3961 53.5497 23.3857 53.45C23.3753 53.3503 23.3894 53.2495 23.4267 53.1565ZM31.3972 24.5511C31.4636 24.5927 31.5182 24.6507 31.5556 24.7196C31.5929 24.7885 31.6119 24.8659 31.6105 24.9442C31.6105 25.0339 31.5846 25.1217 31.536 25.197C31.4873 25.2724 31.418 25.3321 31.3362 25.369C31.2547 25.4056 31.1641 25.4173 31.0759 25.4026C30.9877 25.388 30.9057 25.3476 30.8404 25.2865C30.4485 24.9221 30.8942 24.2608 31.3972 24.5511ZM32.813 20.821C32.8526 20.7523 32.9055 20.6922 32.9684 20.644C33.0314 20.5959 33.1033 20.5607 33.1799 20.5405C33.2566 20.5203 33.3365 20.5154 33.415 20.5262C33.4935 20.5371 33.5691 20.5633 33.6374 20.6035C33.7756 20.6853 33.8763 20.8179 33.918 20.9729C33.9597 21.128 33.9392 21.2932 33.8609 21.4333L32.4546 23.8904C33.3405 25.0034 32.5334 26.6313 31.1522 26.6313C29.7107 26.6313 28.9359 24.8893 29.9228 23.8038C30.107 23.5994 30.3393 23.4443 30.5986 23.3524C30.858 23.2605 31.1361 23.2347 31.4079 23.2775L32.813 20.821ZM21.9105 20.2648L24.7063 21.8939C24.3484 22.6621 24.1292 23.4889 24.0587 24.3343L20.8298 24.3319C20.9104 22.916 21.2772 21.5313 21.9105 20.2648ZM25.4692 16.2341L27.0839 19.0556C26.3934 19.5412 25.7939 20.1449 25.3132 20.8389L22.5168 19.2098C23.2896 18.0284 24.2942 17.0163 25.4698 16.2347L25.4692 16.2341ZM30.5447 14.5411V17.7987C29.7083 17.8683 28.8913 18.0874 28.1324 18.4457L26.5182 15.6236C27.7716 14.9889 29.1426 14.6201 30.5453 14.5405L30.5447 14.5411ZM35.7797 15.6343L34.1655 18.4564C33.4087 18.0967 32.5935 17.8756 31.7586 17.8035V14.5417C33.1589 14.6247 34.5282 14.9957 35.7803 15.6337L35.7797 15.6343ZM39.768 19.2211L36.9709 20.8502C36.4934 20.1583 35.8979 19.5557 35.2116 19.07L36.8258 16.2473C37.9965 17.0302 38.9969 18.0417 39.7668 19.2211H39.768ZM41.4538 24.4388H38.2279C38.1674 23.5617 37.9465 22.7032 37.5761 21.9058L40.3725 20.2761C41.0184 21.5734 41.3867 22.9912 41.4538 24.4388ZM42.6737 24.8301L42.6761 25.0506C42.6761 25.2124 42.6122 25.3684 42.4981 25.4831C42.3846 25.5978 42.2304 25.6623 42.0691 25.6623H37.6382V25.6599C37.5581 25.66 37.4787 25.644 37.4048 25.6129C37.331 25.5819 37.2641 25.5363 37.2081 25.4789C37.1516 25.4213 37.1072 25.3532 37.0772 25.2783C37.0473 25.2034 37.0325 25.1234 37.0337 25.0428C37.047 24.258 36.9062 23.4781 36.6191 22.7476C36.3325 22.0186 35.905 21.3533 35.3609 20.7899C34.8187 20.2284 34.1703 19.7802 33.4534 19.4714C32.3752 19.0067 31.182 18.8773 30.0292 19.1C28.8763 19.3227 27.8172 19.8871 26.9896 20.72C26.4363 21.274 25.9978 21.9318 25.6992 22.6556C25.4001 23.3813 25.2465 24.1587 25.2469 24.9436H25.244C25.244 25.1061 25.1806 25.2608 25.0671 25.3755C24.9536 25.4896 24.8001 25.5542 24.64 25.5542L20.2079 25.55C20.0478 25.55 19.8942 25.4861 19.7807 25.3714C19.6672 25.2565 19.6037 25.1015 19.6039 24.94C19.6029 21.8687 20.8101 18.9203 22.9649 16.7317C24.0258 15.6541 25.2892 14.7967 26.6824 14.2086C28.0757 13.6206 29.5713 13.3135 31.0835 13.3051C32.596 13.2988 34.0948 13.5915 35.4937 14.1662C36.8927 14.7409 38.1644 15.5864 39.2357 16.6541C41.4109 18.822 42.6458 21.7586 42.6737 24.8295V24.8301Z" fill="#020842"/>
<path d="M21.5586 19.3508L25.143 21.4417M25.8569 15.6367L27.5326 18.7534" stroke="white" stroke-width="2"/>
<path d="M30.5186 13.9741H31.7134V18.1559H30.5186V13.9741ZM36.1795 15.1689L37.2166 15.7621L35.14 19.392L34.103 18.7987L36.1795 15.1689ZM40.1785 18.9176L40.862 20.0586L37.2734 22.2057L36.5905 21.0647L40.1785 18.9176Z" fill="white"/>
</svg>
