<svg width="62" height="62" viewBox="0 0 62 62" fill="none" xmlns="http://www.w3.org/2000/svg">
<path d="M31.2775 39.5919C36.4138 39.5919 40.5775 35.4282 40.5775 30.2919C40.5775 25.1557 36.4138 20.9919 31.2775 20.9919C26.1413 20.9919 21.9775 25.1557 21.9775 30.2919C21.9775 35.4282 26.1413 39.5919 31.2775 39.5919Z" fill="#0044EB"/>
<path d="M31.1772 39.8967C28.5993 39.8967 26.1758 38.8934 24.353 37.0713C23.4541 36.1775 22.7414 35.1144 22.2562 33.9433C21.771 32.7722 21.5229 31.5165 21.5264 30.2489C21.5264 27.6716 22.5308 25.2487 24.3536 23.4265C25.2477 22.5278 26.3112 21.8154 27.4825 21.3305C28.6537 20.8455 29.9095 20.5976 31.1772 20.6011C33.7551 20.6011 36.1786 21.6043 38.0014 23.4265C38.9002 24.3202 39.6127 25.3833 40.0978 26.5543C40.5829 27.7252 40.8309 28.9808 40.8274 30.2483C40.8274 32.8262 39.8242 35.2485 38.0014 37.0713C37.1072 37.9699 36.0436 38.6823 34.8722 39.1673C33.7009 39.6523 32.445 39.9002 31.1772 39.8967ZM31.1772 22.1582C26.7145 22.1582 23.0847 25.788 23.0847 30.2483C23.0847 34.7092 26.7145 38.339 31.1772 38.339C35.6399 38.339 39.2697 34.7098 39.2697 30.2489C39.2697 25.788 35.6399 22.1582 31.1772 22.1582Z" fill="#020842"/>
<path d="M28.7301 34.0171C28.5197 34.0171 28.3106 33.932 28.1568 33.7654L26.0981 31.5262C25.9592 31.3739 25.8863 31.1729 25.8953 30.967C25.9043 30.7612 25.9946 30.5673 26.1462 30.4278C26.2979 30.2884 26.4987 30.2147 26.7046 30.2229C26.9105 30.2312 27.1047 30.3207 27.2448 30.4719L28.7933 32.156L35.1774 26.6682C35.334 26.5337 35.5377 26.4668 35.7436 26.4825C35.9496 26.4981 36.1408 26.5949 36.2754 26.7515C36.41 26.9082 36.4768 27.1119 36.4612 27.3178C36.4455 27.5237 36.3488 27.715 36.1921 27.8496L29.2378 33.8287C29.0966 33.9502 28.9164 34.0171 28.7301 34.0171Z" fill="white"/>
<path d="M30.9998 53.601C36.5399 53.601 41.0896 51.6104 44.5224 47.6852C53.8631 37.0026 51.8463 15.8289 51.757 14.9333C51.7174 14.5461 51.4007 14.2512 51.0231 14.2512C35.0619 14.2512 31.6789 8.42165 31.6497 8.36936C31.3926 7.87688 30.6082 7.87688 30.3511 8.36936C30.3207 8.42834 27.0922 14.2512 10.9777 14.2512C10.6001 14.2512 10.2834 14.5461 10.2438 14.9333C10.1532 15.8295 8.1365 37.0026 17.4778 47.6846C20.91 51.6104 25.4603 53.601 30.9998 53.601ZM11.6568 15.7694C24.5203 15.6374 29.4178 11.7705 30.9998 9.97813C32.5818 11.7699 37.4793 15.6374 50.3434 15.7694C50.6078 19.4873 51.4286 37.5151 43.4267 46.6662C40.2852 50.2582 36.1046 52.0798 30.9992 52.0798C25.8962 52.0798 21.7162 50.2595 18.5753 46.6686C10.5758 37.5243 11.393 19.4873 11.6562 15.77L11.6568 15.7694Z" fill="#020842"/>
</svg>
