<svg width="62" height="62" viewBox="0 0 62 62" fill="none" xmlns="http://www.w3.org/2000/svg">
<path d="M45.9135 31.0234C45.6915 31.0552 45.4911 31.1734 45.3559 31.3523C45.2208 31.5313 45.1618 31.7564 45.1921 31.9787C45.3074 32.8092 45.366 33.6459 45.366 34.484C45.366 38.0113 44.32 41.4595 42.3603 44.3924C40.4006 47.3252 37.6152 49.6111 34.3564 50.961C31.0975 52.3109 27.5116 52.6641 24.052 51.9759C20.5924 51.2878 17.4146 49.5892 14.9204 47.095C12.4262 44.6007 10.7276 41.4229 10.0394 37.9633C9.35128 34.5038 9.70447 30.9178 11.0543 27.659C12.4042 24.4001 14.6901 21.6147 17.623 19.655C20.5559 17.6954 24.004 16.6494 27.5314 16.6494C28.3379 16.6494 29.1438 16.7036 29.9434 16.8107C30.1665 16.836 30.3906 16.7728 30.5676 16.6346C30.7446 16.4964 30.8602 16.2943 30.8897 16.0717C30.9192 15.8491 30.8601 15.6239 30.7252 15.4444C30.5903 15.2649 30.3904 15.1455 30.1684 15.1119C26.1126 14.5598 21.9858 15.2956 18.3708 17.2156C14.7559 19.1357 11.8354 22.1427 10.0219 25.8123C8.20835 29.4818 7.59338 33.6283 8.26383 37.6662C8.93428 41.7041 10.8563 45.4294 13.7584 48.316C16.6604 51.2025 20.396 53.1045 24.4375 53.7532C28.4789 54.402 32.6221 53.7648 36.2818 51.9315C39.9415 50.0983 42.9329 47.1617 44.8335 43.5365C46.734 39.9113 47.4477 35.7807 46.8738 31.7279C46.8381 31.5081 46.7175 31.3112 46.5381 31.1794C46.3586 31.0476 46.1345 30.9916 45.9142 31.0234H45.9135Z" fill="#020842"/>
<path d="M27.2182 25.4034C27.7084 25.4034 28.1974 25.4406 28.6813 25.5149C28.9063 25.5496 29.1363 25.496 29.3202 25.3656C29.5042 25.2352 29.6277 25.0392 29.663 24.8206C29.6805 24.7121 29.6759 24.6012 29.6495 24.4945C29.6231 24.3879 29.5754 24.2877 29.5093 24.1999C29.3731 24.0199 29.1717 23.9005 28.9485 23.8672C28.3754 23.7864 27.797 23.7489 27.2182 23.755C25.0374 23.755 22.9051 24.3833 21.0917 25.5603C19.2901 26.7235 17.8762 28.3974 17.0306 30.368C16.1967 32.3189 15.9778 34.4778 16.403 36.5563C16.8352 38.6462 17.887 40.5574 19.4212 42.0408C20.978 43.5462 22.94 44.5649 25.067 44.9721C27.2051 45.3855 29.4171 45.174 31.438 44.3628C33.4396 43.5628 35.161 42.1906 36.3869 40.4176C37.9608 38.1375 38.5692 35.3275 38.0794 32.6005C38.0593 32.4935 38.0182 32.3915 37.9584 32.3006C37.8985 32.2096 37.8212 32.1314 37.7309 32.0706C37.5455 31.9454 37.3189 31.8966 37.0983 31.9345C36.8778 31.9723 36.6812 32.0933 36.5514 32.271C36.4876 32.3584 36.4421 32.4579 36.4177 32.5633C36.3932 32.6688 36.3902 32.7781 36.409 32.8847C36.8242 35.1931 36.3093 37.572 34.9767 39.5021C33.9393 41.0023 32.4827 42.1635 30.789 42.8404C29.0789 43.5269 27.2071 43.7058 25.3978 43.3558C23.598 43.0115 21.9377 42.1496 20.6203 40.8757C19.3224 39.6205 18.4326 38.0033 18.0671 36.235C17.7072 34.476 17.8925 32.649 18.5983 30.9981C19.3138 29.3309 20.5101 27.9149 22.0343 26.9308C23.5786 25.9318 25.379 25.4017 27.2182 25.4034Z" fill="#020842"/>
<path d="M42.6563 9.26245L32.8896 19.3442L33.2047 29.4259H43.2864L52.7381 19.3442H42.6563V9.26245Z" fill="#0044EB"/>
<path d="M53.935 18.9132C53.8712 18.7563 53.7624 18.6217 53.6225 18.5263C53.484 18.4317 53.3201 18.3812 53.1524 18.3814H43.8545V8.86738C43.8545 8.69662 43.806 8.52901 43.7134 8.38661C43.6462 8.27996 43.5556 8.19005 43.4485 8.12376C43.3413 8.05746 43.2204 8.01652 43.095 8.00405C42.9696 7.99159 42.843 8.00794 42.7249 8.05186C42.6068 8.09577 42.5003 8.16608 42.4134 8.25743L32.2706 18.6366C32.1111 18.7996 32.0216 19.0185 32.0211 19.2465V29.2665L27.1988 34.2053C27.1106 34.2828 27.0382 34.378 26.9877 34.4851C26.9113 34.6469 26.8859 34.8283 26.9151 35.0049C26.9442 35.1815 27.0265 35.345 27.1509 35.4737C27.2328 35.5572 27.331 35.6227 27.4395 35.6662C27.5479 35.7097 27.6643 35.7302 27.7811 35.7264C27.8982 35.722 28.013 35.6928 28.118 35.6408C28.2231 35.5887 28.3159 35.5151 28.3904 35.4246L33.217 30.4908H43.0089C43.2332 30.4896 43.4475 30.3976 43.6056 30.235L53.7485 19.8565C53.867 19.734 53.9477 19.5799 53.9807 19.4126C54.0136 19.2454 53.9976 19.0722 53.9344 18.9138L53.935 18.9132ZM33.7116 19.6051L42.1639 10.9562V18.8874L33.7116 27.5369V19.6051ZM42.6592 28.7606H34.907L43.3592 20.111H51.1121L42.6592 28.7606Z" fill="#020842"/>
<path d="M42.2827 18.7141L43.6059 20.0109L34.5273 29.2773L33.2041 27.9805L42.2827 18.7141Z" fill="white"/>
</svg>
