<svg width="62" height="62" viewBox="0 0 62 62" fill="none" xmlns="http://www.w3.org/2000/svg">
<path d="M46.177 37.4489H46.8911C47.2394 37.4491 47.5842 37.3839 47.906 37.257C48.2278 37.1302 48.5201 36.9441 48.7664 36.7096C49.0126 36.475 49.2079 36.1965 49.3411 35.89C49.4743 35.5835 49.5427 35.255 49.5426 34.9233C49.5427 34.5916 49.4743 34.2631 49.3411 33.9566C49.2079 33.6501 49.0126 33.3716 48.7664 33.137C48.5201 32.9025 48.2278 32.7164 47.906 32.5896C47.5842 32.4627 47.2394 32.3975 46.8911 32.3976L36.8865 32.4032C39.6957 28.0779 39.8535 19.9345 35.3465 16.929C34.1078 16.0848 32.4737 16.9364 32.4035 18.2363C31.5699 28.8924 25.8346 32.9771 21.0518 32.9771V50.0178H22.4489C23.213 50.0178 23.9454 50.1365 24.6472 50.379C25.3218 50.6026 25.9502 50.9368 26.504 51.3666C27.6466 52.2305 29.0191 52.7983 30.5033 52.7983H42.103C42.8284 52.7969 43.5235 52.5215 44.0358 52.0324C44.5482 51.5434 44.8358 50.8806 44.8357 50.1897C44.8358 49.4988 44.5482 48.8361 44.0358 48.347C43.5235 47.858 42.8284 47.5825 42.103 47.5812H44.0715C44.7781 47.5812 45.4557 47.3139 45.9553 46.8379C46.4549 46.362 46.7356 45.7166 46.7356 45.0435C46.7356 44.3705 46.4549 43.725 45.9553 43.2491C45.4557 42.7732 44.7781 42.5058 44.0715 42.5058H46.1776C46.8806 42.5051 47.5546 42.2388 48.0517 41.7653C48.5488 41.2918 48.8284 40.6498 48.8291 39.9802C48.8298 39.3095 48.5508 38.6661 48.0536 38.1913C47.5564 37.7166 46.8816 37.4493 46.1776 37.4483L46.177 37.4489Z" fill="white"/>
<path d="M18.9481 31.1182H11.7715V53.217H18.9481C19.2244 53.217 19.498 53.1651 19.7532 53.0644C20.0085 52.9637 20.2404 52.816 20.4357 52.6299C20.631 52.4438 20.786 52.2228 20.8916 51.9796C20.9973 51.7365 21.0517 51.4758 21.0516 51.2126V33.1219C21.0516 32.5904 20.83 32.0808 20.4355 31.705C20.041 31.3293 19.506 31.1182 18.9481 31.1182Z" fill="#0044EB"/>
<path d="M18.9479 30.4331H11.7706C11.3447 30.4331 11 30.7614 11 31.1671V53.2653C11 53.671 11.3441 54 11.7706 54H18.9485C19.7106 53.999 20.4411 53.7102 20.9799 53.1968C21.5187 52.6835 21.8218 51.9875 21.8227 51.2616V50.7526C22.1992 50.7731 23.1705 50.6506 24.3982 51.0742C26.1809 51.6512 27.3249 53.5325 30.5022 53.5325H42.102C44.9788 53.5325 46.6103 50.3995 44.9249 48.2128C47.242 47.6457 48.258 45.0359 46.8856 43.1701C49.4786 42.6476 50.5154 39.5808 48.645 37.7206C51.6262 36.0156 50.3395 31.6625 46.8888 31.6625L38.1813 31.6681C40.6432 26.7454 40.2452 19.2989 35.7941 16.3311C34.0522 15.145 31.7338 16.333 31.6338 18.1814C30.9054 27.4986 26.1803 31.8672 21.6292 32.2092C21.2189 31.1739 20.1762 30.4331 18.9479 30.4331ZM20.2807 51.2616C20.2807 51.9617 19.6835 52.5312 18.9479 52.5312H12.5419V31.9012H18.9479C19.6802 31.9012 20.2762 32.4671 20.2801 33.164L20.2807 51.2616ZM21.8227 33.6792C27.0256 33.2475 32.3785 28.4386 33.1725 18.2742C33.2115 17.5494 34.1554 17.0188 34.9034 17.5302C38.8676 20.1728 38.9474 27.8332 36.2304 32.0162C36.1585 32.1275 36.1191 32.2551 36.1161 32.3857C36.1132 32.5163 36.1468 32.6454 36.2136 32.7595C36.2804 32.8736 36.3779 32.9688 36.4961 33.0351C36.6143 33.1014 36.7489 33.1365 36.8861 33.1368L46.8914 33.1306C49.3818 33.1343 49.3702 36.7138 46.8894 36.7138H46.1753C45.1554 36.7138 45.156 38.1825 46.1753 38.1825C48.6592 38.1825 48.6683 41.7713 46.1753 41.7713H44.0705C43.0499 41.7713 43.0512 43.24 44.0705 43.24C46.5759 43.24 46.5726 46.8461 44.0705 46.8461H42.102C41.0814 46.8461 41.0827 48.3148 42.102 48.3148C44.6976 48.3148 44.6937 52.0637 42.102 52.0637H30.5022C27.8261 52.0637 27.0704 50.3859 24.9091 49.689C23.4055 49.1689 22.2031 49.3055 21.8227 49.2839V33.6792ZM36.7615 8.97432V7.73438C36.7615 7.53961 36.6802 7.35282 36.5356 7.21509C36.3911 7.07737 36.195 7 35.9905 7C35.786 7 35.5899 7.07737 35.4453 7.21509C35.3008 7.35282 35.2195 7.53961 35.2195 7.73438V8.97432C35.2195 9.16909 35.3008 9.35588 35.4453 9.49361C35.5899 9.63133 35.786 9.7087 35.9905 9.7087C36.195 9.7087 36.3911 9.63133 36.5356 9.49361C36.6802 9.35588 36.7615 9.16909 36.7615 8.97432ZM47.1387 13.6768L48.0594 12.8005C48.131 12.7323 48.1878 12.6514 48.2266 12.5623C48.2653 12.4732 48.2853 12.3777 48.2853 12.2813C48.2854 12.1848 48.2655 12.0893 48.2267 12.0002C48.188 11.9111 48.1313 11.8301 48.0597 11.7619C47.9881 11.6937 47.9031 11.6395 47.8096 11.6026C47.7161 11.5657 47.6158 11.5466 47.5146 11.5466C47.4133 11.5466 47.313 11.5655 47.2195 11.6024C47.1259 11.6393 47.0409 11.6934 46.9693 11.7616L46.0487 12.6391C45.9771 12.7073 45.9203 12.7882 45.8815 12.8773C45.8427 12.9664 45.8227 13.0619 45.8227 13.1584C45.8227 13.2548 45.8426 13.3503 45.8813 13.4394C45.92 13.5286 45.9768 13.6095 46.0484 13.6778C46.1199 13.746 46.2049 13.8001 46.2985 13.837C46.392 13.874 46.4922 13.893 46.5935 13.893C46.6947 13.893 46.795 13.8741 46.8886 13.8372C46.9821 13.8003 47.0671 13.7462 47.1387 13.6781V13.6768ZM25.9336 13.6768C26.0052 13.6087 26.062 13.5277 26.1007 13.4386C26.1395 13.3496 26.1594 13.2541 26.1594 13.1577C26.1594 13.0612 26.1395 12.9658 26.1007 12.8767C26.062 12.7876 26.0052 12.7067 25.9336 12.6385L25.0117 11.7616C24.9401 11.6934 24.8551 11.6393 24.7616 11.6024C24.6681 11.5655 24.5679 11.5465 24.4667 11.5465C24.3654 11.5465 24.2652 11.5655 24.1717 11.6024C24.0782 11.6393 23.9932 11.6934 23.9216 11.7616C23.8501 11.8297 23.7933 11.9107 23.7545 11.9998C23.7158 12.0888 23.6959 12.1843 23.6959 12.2807C23.6959 12.3772 23.7158 12.4726 23.7545 12.5617C23.7933 12.6508 23.8501 12.7317 23.9216 12.7999L24.8429 13.6768C24.9145 13.745 24.9994 13.7991 25.0929 13.836C25.1865 13.8729 25.2867 13.8919 25.3879 13.8919C25.4891 13.8919 25.5894 13.8729 25.6829 13.836C25.7764 13.7991 25.862 13.745 25.9336 13.6768Z" fill="#020842"/>
</svg>
