<svg width="72" height="77" viewBox="0 0 72 77" fill="none" xmlns="http://www.w3.org/2000/svg">
<path d="M7.648 73.144C7.104 73.144 6.64 73.04 6.256 72.832C5.872 72.616 5.568 72.332 5.344 71.98C5.12 71.62 4.984 71.232 4.936 70.816H6.052C6.132 71.232 6.312 71.556 6.592 71.788C6.872 72.012 7.228 72.124 7.66 72.124C8.06 72.124 8.412 72.004 8.716 71.764C9.02 71.524 9.264 71.16 9.448 70.672C9.632 70.184 9.736 69.568 9.76 68.824C9.768 68.8 9.772 68.776 9.772 68.752C9.772 68.728 9.772 68.704 9.772 68.68C9.644 68.92 9.468 69.14 9.244 69.34C9.02 69.54 8.756 69.7 8.452 69.82C8.156 69.932 7.824 69.988 7.456 69.988C6.984 69.988 6.54 69.88 6.124 69.664C5.716 69.44 5.38 69.124 5.116 68.716C4.86 68.308 4.732 67.832 4.732 67.288C4.732 66.8 4.848 66.34 5.08 65.908C5.32 65.476 5.656 65.128 6.088 64.864C6.528 64.592 7.044 64.456 7.636 64.456C8.252 64.456 8.768 64.572 9.184 64.804C9.608 65.028 9.944 65.336 10.192 65.728C10.448 66.112 10.632 66.544 10.744 67.024C10.864 67.496 10.924 67.984 10.924 68.488C10.924 69.408 10.796 70.22 10.54 70.924C10.284 71.62 9.912 72.164 9.424 72.556C8.936 72.948 8.344 73.144 7.648 73.144ZM7.72 68.968C8.064 68.968 8.372 68.892 8.644 68.74C8.916 68.58 9.132 68.368 9.292 68.104C9.452 67.84 9.532 67.548 9.532 67.228C9.532 66.892 9.452 66.596 9.292 66.34C9.132 66.076 8.912 65.872 8.632 65.728C8.36 65.576 8.052 65.5 7.708 65.5C7.372 65.5 7.068 65.576 6.796 65.728C6.524 65.872 6.308 66.076 6.148 66.34C5.996 66.596 5.92 66.896 5.92 67.24C5.92 67.584 5.996 67.888 6.148 68.152C6.308 68.408 6.524 68.608 6.796 68.752C7.068 68.896 7.376 68.968 7.72 68.968ZM15.7106 73.144C14.9666 73.144 14.3266 72.964 13.7906 72.604C13.2546 72.236 12.8426 71.728 12.5546 71.08C12.2666 70.424 12.1226 69.664 12.1226 68.8C12.1226 67.936 12.2666 67.18 12.5546 66.532C12.8426 65.876 13.2546 65.368 13.7906 65.008C14.3266 64.64 14.9666 64.456 15.7106 64.456C16.4546 64.456 17.0906 64.64 17.6186 65.008C18.1546 65.368 18.5626 65.876 18.8426 66.532C19.1306 67.18 19.2746 67.936 19.2746 68.8C19.2746 69.664 19.1306 70.424 18.8426 71.08C18.5626 71.728 18.1546 72.236 17.6186 72.604C17.0906 72.964 16.4546 73.144 15.7106 73.144ZM15.7106 72.076C16.1586 72.076 16.5586 71.944 16.9106 71.68C17.2706 71.416 17.5506 71.04 17.7506 70.552C17.9506 70.064 18.0506 69.48 18.0506 68.8C18.0506 68.12 17.9506 67.536 17.7506 67.048C17.5506 66.56 17.2706 66.188 16.9106 65.932C16.5586 65.668 16.1586 65.536 15.7106 65.536C15.2546 65.536 14.8466 65.668 14.4866 65.932C14.1266 66.188 13.8466 66.56 13.6466 67.048C13.4466 67.536 13.3466 68.12 13.3466 68.8C13.3466 69.48 13.4466 70.064 13.6466 70.552C13.8466 71.04 14.1266 71.416 14.4866 71.68C14.8466 71.944 15.2546 72.076 15.7106 72.076ZM23.9958 73.144C23.2518 73.144 22.6118 72.964 22.0758 72.604C21.5398 72.236 21.1278 71.728 20.8398 71.08C20.5518 70.424 20.4078 69.664 20.4078 68.8C20.4078 67.936 20.5518 67.18 20.8398 66.532C21.1278 65.876 21.5398 65.368 22.0758 65.008C22.6118 64.64 23.2518 64.456 23.9958 64.456C24.7398 64.456 25.3758 64.64 25.9037 65.008C26.4398 65.368 26.8478 65.876 27.1278 66.532C27.4158 67.18 27.5598 67.936 27.5598 68.8C27.5598 69.664 27.4158 70.424 27.1278 71.08C26.8478 71.728 26.4398 72.236 25.9037 72.604C25.3758 72.964 24.7398 73.144 23.9958 73.144ZM23.9958 72.076C24.4438 72.076 24.8438 71.944 25.1958 71.68C25.5558 71.416 25.8358 71.04 26.0358 70.552C26.2358 70.064 26.3358 69.48 26.3358 68.8C26.3358 68.12 26.2358 67.536 26.0358 67.048C25.8358 66.56 25.5558 66.188 25.1958 65.932C24.8438 65.668 24.4438 65.536 23.9958 65.536C23.5398 65.536 23.1318 65.668 22.7718 65.932C22.4118 66.188 22.1318 66.56 21.9318 67.048C21.7318 67.536 21.6318 68.12 21.6318 68.8C21.6318 69.48 21.7318 70.064 21.9318 70.552C22.1318 71.04 22.4118 71.416 22.7718 71.68C23.1318 71.944 23.5398 72.076 23.9958 72.076ZM29.9649 73V65.956L28.5009 66.328V65.428L30.4089 64.6H31.1889V73H29.9649ZM36.4327 73.06C36.2007 73.06 36.0087 72.988 35.8567 72.844C35.7127 72.692 35.6407 72.512 35.6407 72.304C35.6407 72.088 35.7127 71.908 35.8567 71.764C36.0087 71.612 36.2007 71.536 36.4327 71.536C36.6647 71.536 36.8527 71.612 36.9967 71.764C37.1407 71.908 37.2127 72.088 37.2127 72.304C37.2127 72.512 37.1407 72.692 36.9967 72.844C36.8527 72.988 36.6647 73.06 36.4327 73.06ZM36.4327 68.332C36.2007 68.332 36.0087 68.26 35.8567 68.116C35.7127 67.964 35.6407 67.784 35.6407 67.576C35.6407 67.36 35.7127 67.18 35.8567 67.036C36.0087 66.884 36.2007 66.808 36.4327 66.808C36.6647 66.808 36.8527 66.884 36.9967 67.036C37.1407 67.18 37.2127 67.36 37.2127 67.576C37.2127 67.784 37.1407 67.964 36.9967 68.116C36.8527 68.26 36.6647 68.332 36.4327 68.332ZM41.5283 73V72.136C42.0883 71.704 42.6203 71.268 43.1243 70.828C43.6283 70.388 44.0763 69.952 44.4683 69.52C44.8683 69.08 45.1803 68.652 45.4043 68.236C45.6283 67.812 45.7403 67.408 45.7403 67.024C45.7403 66.752 45.6923 66.5 45.5963 66.268C45.5003 66.036 45.3483 65.848 45.1403 65.704C44.9323 65.552 44.6483 65.476 44.2883 65.476C43.9443 65.476 43.6563 65.552 43.4243 65.704C43.2003 65.856 43.0283 66.06 42.9083 66.316C42.7963 66.564 42.7403 66.84 42.7403 67.144H41.5763C41.5843 66.568 41.7083 66.08 41.9483 65.68C42.1883 65.28 42.5123 64.976 42.9203 64.768C43.3363 64.56 43.8003 64.456 44.3123 64.456C44.8483 64.456 45.3123 64.556 45.7043 64.756C46.0963 64.948 46.4003 65.232 46.6163 65.608C46.8323 65.976 46.9403 66.428 46.9403 66.964C46.9403 67.348 46.8643 67.732 46.7123 68.116C46.5603 68.492 46.3523 68.86 46.0883 69.22C45.8323 69.58 45.5443 69.928 45.2243 70.264C44.9043 70.592 44.5723 70.904 44.2283 71.2C43.8923 71.496 43.5683 71.764 43.2563 72.004H47.2043V73H41.5283ZM51.8043 73.144C51.0603 73.144 50.4203 72.964 49.8843 72.604C49.3483 72.236 48.9363 71.728 48.6483 71.08C48.3603 70.424 48.2163 69.664 48.2163 68.8C48.2163 67.936 48.3603 67.18 48.6483 66.532C48.9363 65.876 49.3483 65.368 49.8843 65.008C50.4203 64.64 51.0603 64.456 51.8043 64.456C52.5483 64.456 53.1843 64.64 53.7123 65.008C54.2483 65.368 54.6563 65.876 54.9363 66.532C55.2243 67.18 55.3683 67.936 55.3683 68.8C55.3683 69.664 55.2243 70.424 54.9363 71.08C54.6563 71.728 54.2483 72.236 53.7123 72.604C53.1843 72.964 52.5483 73.144 51.8043 73.144ZM51.8043 72.076C52.2523 72.076 52.6523 71.944 53.0043 71.68C53.3643 71.416 53.6443 71.04 53.8443 70.552C54.0443 70.064 54.1443 69.48 54.1443 68.8C54.1443 68.12 54.0443 67.536 53.8443 67.048C53.6443 66.56 53.3643 66.188 53.0043 65.932C52.6523 65.668 52.2523 65.536 51.8043 65.536C51.3483 65.536 50.9403 65.668 50.5803 65.932C50.2203 66.188 49.9403 66.56 49.7403 67.048C49.5403 67.536 49.4403 68.12 49.4403 68.8C49.4403 69.48 49.5403 70.064 49.7403 70.552C49.9403 71.04 50.2203 71.416 50.5803 71.68C50.9403 71.944 51.3483 72.076 51.8043 72.076ZM57.7735 73V65.956L56.3095 66.328V65.428L58.2175 64.6H58.9975V73H57.7735ZM63.643 73.144C63.051 73.144 62.543 73.04 62.119 72.832C61.695 72.616 61.359 72.328 61.111 71.968C60.863 71.6 60.711 71.188 60.655 70.732H61.831C61.911 71.14 62.111 71.476 62.431 71.74C62.751 71.996 63.155 72.124 63.643 72.124C64.011 72.124 64.327 72.036 64.591 71.86C64.855 71.684 65.059 71.448 65.203 71.152C65.347 70.856 65.419 70.528 65.419 70.168C65.419 69.784 65.343 69.452 65.191 69.172C65.047 68.884 64.843 68.66 64.579 68.5C64.323 68.34 64.023 68.26 63.679 68.26C63.263 68.26 62.903 68.356 62.599 68.548C62.303 68.732 62.087 68.968 61.951 69.256H60.787L61.483 64.6H66.007V65.644H62.407L61.963 67.996C62.155 67.78 62.411 67.604 62.731 67.468C63.059 67.332 63.431 67.264 63.847 67.264C64.271 67.264 64.651 67.34 64.987 67.492C65.323 67.636 65.607 67.84 65.839 68.104C66.079 68.368 66.259 68.676 66.379 69.028C66.507 69.38 66.571 69.752 66.571 70.144C66.571 70.568 66.503 70.96 66.367 71.32C66.231 71.68 66.035 72 65.779 72.28C65.531 72.552 65.223 72.764 64.855 72.916C64.495 73.068 64.091 73.144 63.643 73.144Z" fill="black"/>
<path d="M32.2201 0.192533C27.9567 0.750061 23.3325 2.58662 19.9545 5.0791C17.8884 6.6205 13.8545 10.9168 13.8545 11.5727C13.8545 12.327 14.2808 11.9662 16.0846 9.83449C17.0029 8.71943 18.2163 7.47319 18.7739 7.07965C19.7905 6.35814 19.8233 6.35814 20.9712 6.94846C21.5943 7.30922 22.1846 7.66997 22.2502 7.80115C22.3158 7.93234 21.7911 8.85062 21.0696 9.90008C20.3481 10.9495 19.8561 11.8678 19.9545 11.9662C20.1513 12.163 21.3975 10.884 22.5782 9.24417L23.2341 8.32588L25.4642 9.04739L27.6943 9.80169L27.4647 10.9168C27.2352 12.2614 27.7599 12.327 28.3502 11.0151C28.6126 10.3592 28.9405 10.0969 29.2685 10.1952C29.5309 10.2936 30.9083 10.4904 32.3185 10.5888C34.483 10.7528 34.975 10.884 35.1062 11.4087C35.2701 12.0974 35.8277 12.1958 35.8277 11.5399C35.8277 10.9495 36.5492 10.6872 38.2217 10.6872C38.9761 10.6872 40.1567 10.556 40.8454 10.392C41.9933 10.1297 42.0916 10.1624 42.5836 11.0479C43.2395 12.3598 43.7642 12.2614 43.5347 10.9168C43.3379 9.86729 43.3707 9.80169 44.7481 9.27696C47.7653 8.16191 47.7653 8.16191 49.2739 10.1624C50.553 11.835 51.2417 12.3926 51.2417 11.7366C51.2417 11.3759 50.3234 10.0313 49.3395 8.9818C48.4212 7.99793 48.5524 7.63717 50.0938 6.88287C50.9137 6.52212 51.3401 6.45653 51.832 6.71889C52.6191 7.14524 56.161 10.9495 56.161 11.3759C56.161 11.5399 56.3906 11.6711 56.653 11.6711C56.9153 11.6711 57.1449 11.5399 57.1449 11.3431C57.1449 10.8512 52.6519 6.22696 50.9465 4.98072C45.7976 1.2092 38.6153 -0.627361 32.2201 0.192533ZM39.3696 1.04522C40.2879 1.17641 41.075 1.40598 41.075 1.56996C41.075 2.29146 37.9266 3.20974 35.4341 3.20974C31.6626 3.20974 28.0223 1.40598 31.1707 1.07802C33.3024 0.848449 37.5658 0.848449 39.3696 1.04522ZM29.1045 2.12748C29.2029 2.32426 28.5798 2.94738 27.7271 3.5377C26.8416 4.12803 25.5298 5.17749 24.7427 5.899L23.3653 7.17803L22.0534 6.58771C21.2991 6.25975 20.7744 5.83341 20.84 5.63663C21.1024 4.88233 26.94 1.93071 28.3502 1.86512C28.6454 1.83232 28.9733 1.9635 29.1045 2.12748ZM44.6169 2.48824C46.4535 3.20974 49.8314 5.01351 50.0938 5.43986C50.1922 5.60384 49.7331 6.03018 49.1099 6.42373L47.9621 7.14524L45.732 5.34147C44.5185 4.3576 43.1411 3.30813 42.6492 2.98017C41.7637 2.42265 41.6981 1.83232 42.4852 1.83232C42.7148 1.83232 43.6658 2.12748 44.6169 2.48824ZM45.24 5.99738C47.011 7.57158 46.9782 7.66997 44.1906 8.58825C43.2067 8.949 42.5508 9.0146 42.4852 8.81782C42.4196 8.62105 41.6325 7.4076 40.7798 6.06298C39.1728 3.66889 39.1728 3.63609 39.8615 3.24254C40.4519 2.94738 40.8454 3.01297 42.1244 3.73448C42.9771 4.19362 44.3546 5.21029 45.24 5.99738ZM31.433 3.5705C31.4986 3.80007 30.9083 5.01351 30.1212 6.25975C29.3013 7.47319 28.5798 8.65384 28.5142 8.81782C28.4158 9.14578 25.6282 8.35868 24.6771 7.73556C24.2508 7.4404 24.3819 7.24362 25.333 6.39093C28.547 3.63609 31.0067 2.48824 31.433 3.5705ZM35.1717 7.07965V10.0313H34.2863C33.1712 10.0313 29.5637 9.44094 29.3669 9.24417C29.2029 9.11298 30.4492 7.07965 31.8266 5.17749C32.4825 4.3248 32.8432 4.12803 33.8927 4.12803H35.1717V7.07965ZM40.0911 6.6533C42.0261 9.53933 42.0589 9.47374 38.4185 9.83449C36.3196 10.0641 36.2212 10.0313 36.0244 9.30976C35.7621 8.29309 35.7621 4.61996 36.0572 4.3576C36.1556 4.22641 36.7459 4.12803 37.3363 4.12803C38.2873 4.12803 38.5497 4.3576 40.0911 6.6533Z" fill="#1461A8"/>
<path d="M5 17.0824V19.87H6.63979H8.27958V25.9372V32.0044H6.63979H5V34.7921V37.5797H12.2151H19.4301V34.7921V32.0044H17.7903H16.1506V25.9372V19.87H17.7903H19.4301V17.0824V14.2947H12.2151H5V17.0824Z" fill="#1461A8"/>
<path d="M25.4645 14.9506C23.3328 15.8033 21.9225 17.2135 21.2666 19.1157C20.6107 21.0506 20.6107 22.1985 21.2338 23.7399C22.1193 25.806 24.1854 27.577 26.6451 28.3313C27.2682 28.5281 29.5312 29.2168 31.6629 29.8727C34.7457 30.8238 35.5 31.1517 35.5 31.6437C35.5 32.398 34.6473 32.6603 32.2204 32.6603C30.0231 32.6603 27.4978 31.5781 26.2516 30.0695C25.4317 29.1184 25.2349 29.0528 23.2344 29.0528H21.0698V33.3163V37.5797H23.5295C25.8908 37.5797 25.9892 37.5469 25.9892 36.7926V36.0055L28.0553 36.8582C29.6295 37.5469 30.7774 37.7437 33.2043 37.8421C35.9919 37.9405 36.5494 37.8749 38.1236 37.1534C40.321 36.1695 41.272 35.284 42.0919 33.513C43.3382 30.7254 42.5839 27.8722 39.993 25.5765C38.6484 24.3958 37.8613 24.0678 33.4994 22.7888C30.7446 22.0017 28.2849 21.149 28.0226 20.8867C27.5962 20.4603 27.629 20.3291 28.2849 19.8044C29.1704 19.0829 30.1543 19.0829 32.45 19.6732C34.4505 20.1979 36.3527 21.313 36.8118 22.1985C37.107 22.7232 37.5333 22.8216 39.5995 22.8216H42.0591V18.8861V14.9506H39.5995C37.5661 14.9506 37.1398 15.049 37.1398 15.4754C37.1398 16.0657 37.0086 16.0329 34.5161 15.0818C32.2204 14.1963 27.5306 14.1307 25.4645 14.9506Z" fill="#1461A8"/>
<path d="M51.5375 14.7539C47.6676 15.8361 45.0111 18.1974 43.9944 21.4442C43.3385 23.6087 43.2401 28.069 43.8305 30.0039C44.9127 33.6443 46.4213 35.3168 50.0944 36.9566C52.3901 38.0061 57.3423 38.2029 60.1955 37.4158C65.5085 35.9072 67.8042 32.5292 67.8042 26.1012C67.8042 20.7227 66.2956 17.7711 62.6224 15.8689C59.5724 14.3275 54.8826 13.8356 51.5375 14.7539ZM58.031 20.4931C58.8509 21.0179 59.1133 21.477 59.4084 22.8216C60.1627 26.3964 59.6708 30.3975 58.2934 31.5781C56.5552 33.0867 52.9477 32.3324 52.259 30.3319C51.767 28.9217 51.7998 22.7561 52.2918 21.641C53.0789 19.9356 56.1289 19.3453 58.031 20.4931Z" fill="#1461A8"/>
<path d="M13.8545 40.4002C13.8545 41.0561 17.4948 44.9916 19.5282 46.533C28.1207 53.1249 39.8287 53.8792 49.0771 48.4679C52.4223 46.5002 58.4895 40.2034 57.0465 40.2034C56.7842 40.2034 56.161 40.7937 55.6691 41.5152C55.1772 42.2367 54.0621 43.483 53.1766 44.3029C51.4384 45.9099 51.4712 45.9099 49.3723 44.5652L48.6508 44.0733L49.9298 42.4335C50.6513 41.548 51.2417 40.6625 51.2417 40.4986C51.2417 39.8099 50.5858 40.3018 49.3067 41.9744L47.9293 43.7453L45.7648 42.991C44.5841 42.5647 43.5675 42.1384 43.5019 42.0728C43.4035 42.0072 43.5019 41.548 43.6658 41.0561C44.125 39.8754 43.3051 39.8754 42.7476 41.0561C42.4196 41.7776 42.2228 41.876 41.4029 41.712C40.8782 41.6136 39.468 41.4496 38.2873 41.3185C36.8115 41.1545 36.1556 40.9577 36.1556 40.6625C36.1556 40.4002 35.926 40.2034 35.6637 40.2034C35.4013 40.2034 35.1717 40.4002 35.1717 40.6625C35.1717 40.9577 34.5158 41.1545 33.04 41.3185C31.8594 41.4496 30.4492 41.6136 29.9244 41.712C29.1045 41.876 28.9077 41.7776 28.5798 41.0561C28.0223 39.8754 27.2024 39.8754 27.6615 41.0561C27.8255 41.548 27.9239 42.0072 27.8255 42.0728C27.7599 42.1384 26.7432 42.5647 25.5298 42.991L23.3653 43.7781L21.9878 41.9744C21.2007 40.9905 20.3809 40.2034 20.1513 40.2034C19.6265 40.2034 19.8233 40.5642 21.2991 42.4335C21.9223 43.1878 22.3814 44.0077 22.283 44.2373C22.1846 44.4668 21.5943 44.926 20.9384 45.2539L19.7249 45.9099L17.9212 44.1061C16.9373 43.1222 15.7894 41.8432 15.3959 41.2857C14.7728 40.3346 13.8545 39.8426 13.8545 40.4002ZM35.1062 45.0244L35.0078 47.9104L33.9911 48.0088C33.0728 48.1072 32.8104 47.9104 31.8266 46.533C30.7443 45.09 29.5965 43.0894 29.5965 42.6959C29.5965 42.4991 31.269 42.3023 33.4664 42.2367L35.2045 42.1711L35.1062 45.0244ZM40.2223 42.3679C42.0916 42.6303 42.0916 42.8271 40.0583 45.9099C38.6809 47.976 38.5497 48.0744 37.4674 48.0088L36.3196 47.9104L36.2212 45.0244L36.1228 42.1711H37.4019C38.1234 42.1711 39.3696 42.2695 40.2223 42.3679ZM28.9405 43.4174C28.9405 43.5814 29.5965 44.7292 30.4164 45.9755C31.2035 47.2217 31.8922 48.3368 31.8922 48.4351C31.8922 48.5663 31.4986 48.7631 31.0395 48.8615C30.3836 49.0255 29.7276 48.7959 28.1534 47.7792C27.0384 47.0249 25.6938 46.0083 25.169 45.4507L24.2508 44.4996L25.6938 43.8437C27.2024 43.1878 28.9405 42.9582 28.9405 43.4174ZM45.5352 43.8109L47.0766 44.4996L46.2895 45.3195C45.8632 45.7459 44.5513 46.7953 43.3707 47.6152C41.5997 48.7959 41.0094 49.0583 40.3207 48.8943C39.2384 48.5991 39.2384 48.5663 40.2223 47.1233C40.6486 46.4674 41.4029 45.3195 41.8621 44.5324C42.846 42.9582 43.3051 42.8599 45.5352 43.8109ZM28.0551 48.6975C29.3013 49.4518 29.5309 49.8454 28.9405 50.2061C28.2518 50.6325 21.4631 47.4185 21.1679 46.533C21.0696 46.3034 21.4959 45.8443 22.0862 45.4835L23.1357 44.8604L25.0051 46.4018C26.0217 47.2545 27.3991 48.2712 28.0551 48.6975ZM50.225 46.6314C49.3395 47.6808 42.9771 50.5669 42.3868 50.2061C41.7965 49.8454 42.0261 49.4518 43.3051 48.6647C43.961 48.2712 45.3056 47.2217 46.2567 46.3362L47.9949 44.762L49.2739 45.4835C50.2578 46.041 50.4874 46.3034 50.225 46.6314ZM39.8615 49.583C40.5175 49.9109 41.075 50.2717 41.075 50.4357C41.075 50.9276 39.2712 51.1572 35.6637 51.1572C32.0233 51.1572 30.2524 50.9276 30.2524 50.4029C30.2524 50.1405 32.1545 49.2222 33.368 48.9271C34.6798 48.5991 38.6481 48.9927 39.8615 49.583Z" fill="#1461A8"/>
</svg>
