<svg width="40" height="40" viewBox="0 0 40 40" fill="none" xmlns="http://www.w3.org/2000/svg">
<g clip-path="url(#clip0_386_86)">
<mask id="mask0_386_86" style="mask-type:luminance" maskUnits="userSpaceOnUse" x="0" y="0" width="40" height="40">
<path d="M0 0H40V40H0V0Z" fill="white"/>
</mask>
<g mask="url(#mask0_386_86)">
<path d="M17.7131 20.6301L21.4381 16.9041C20.5735 16.3509 19.5685 16.0573 18.5421 16.0581C17.1104 16.0597 15.7378 16.6291 14.7255 17.6415C13.7131 18.6538 13.1437 20.0264 13.1421 21.4581C13.1421 24.4351 15.5651 26.8581 18.5421 26.8581C21.5191 26.8581 23.9421 24.4351 23.9421 21.4581C23.9429 20.4317 23.6493 19.4266 23.0961 18.5621L19.3711 22.2861L17.7131 20.6301Z" fill="#F26F4D"/>
<path d="M37.0841 21.4581C37.0865 18.2876 36.2746 15.1697 34.7261 12.4031L30.1101 13.0361C31.8981 15.4799 32.8603 18.4301 32.8571 21.4581C32.8571 29.3511 26.4351 35.7731 18.5421 35.7731C10.6491 35.7731 4.22807 29.3501 4.22807 21.4581C4.22807 13.5661 10.6491 7.14309 18.5421 7.14309C21.6881 7.14309 24.5991 8.16409 26.9641 9.89109L27.5971 5.27409C24.8305 3.72557 21.7125 2.91363 18.5421 2.91609C16.1062 2.90931 13.6932 3.38575 11.4427 4.31781C9.19216 5.24987 7.14887 6.61905 5.43107 8.34609C3.70373 10.0639 2.3343 12.1073 1.40206 14.358C0.469824 16.6087 -0.00670207 19.022 7.12032e-05 21.4581C-0.00670069 23.894 0.469732 26.307 1.40179 28.5575C2.33385 30.808 3.70303 32.8513 5.43007 34.5691C7.14803 36.2965 9.1916 37.666 11.4425 38.5983C13.6933 39.5305 16.1068 40.007 18.5431 40.0001C20.9791 40.007 23.3923 39.5306 25.643 38.5986C27.8937 37.6665 29.9372 36.2972 31.6551 34.5701C33.3822 32.8522 34.7515 30.8087 35.6835 28.558C36.6156 26.3073 37.091 23.8941 37.0841 21.4581Z" fill="#F26F4D"/>
<path d="M18.5418 9.487C11.9418 9.487 6.57178 14.857 6.57178 21.457C6.57178 28.059 11.9418 33.429 18.5418 33.429C25.1428 33.429 30.5128 28.059 30.5128 21.458C30.5128 18.578 29.4908 15.934 27.7908 13.866L24.7808 16.876C25.7601 18.2028 26.2876 19.8089 26.2858 21.458C26.2858 25.728 22.8118 29.201 18.5418 29.201C14.2718 29.201 10.7998 25.727 10.7998 21.458C10.7998 17.188 14.2738 13.715 18.5428 13.715C20.2558 13.715 21.8408 14.274 23.1248 15.219L26.1348 12.209C23.9975 10.4467 21.3119 9.48421 18.5418 9.487ZM35.1798 0L29.9708 5.209L29.2058 10.794L34.7908 10.028L39.9998 4.82L36.4838 3.516L35.1798 0Z" fill="#F26F4D"/>
</g>
</g>
<defs>
<clipPath id="clip0_386_86">
<rect width="40" height="40" fill="white"/>
</clipPath>
</defs>
</svg>
