<svg width="40" height="40" viewBox="0 0 40 40" fill="none" xmlns="http://www.w3.org/2000/svg">
<g clip-path="url(#clip0_386_95)">
<path d="M27.7609 20.0537C27.7609 15.7752 24.2799 12.2944 20.001 12.2944C9.7065 12.7207 9.70947 27.3882 20.0011 27.8129C24.2799 27.8129 27.7609 24.3321 27.7609 20.0537ZM20.001 24.8207C17.3723 24.8207 15.2337 22.6822 15.2337 20.0537C15.4956 13.7296 24.5075 13.7315 24.7683 20.0537C24.7684 22.6822 22.6298 24.8207 20.001 24.8207Z" fill="#F44380"/>
<path d="M39.8919 19.5608C38.7318 17.0026 33.0636 5.98423 21.1788 5.19043V10.0051C25.8178 10.5457 29.5085 14.2359 30.0495 18.8745H34.9877C36.5807 18.9326 36.602 21.1576 35.021 21.2329H30.0494C29.5085 25.8715 25.8177 29.5616 21.1787 30.1022V34.9383C33.075 34.3445 38.7223 23.188 39.8959 20.5466C40.0358 20.2323 40.034 19.8742 39.8919 19.5608Z" fill="#F44380"/>
<path d="M20.0007 17.645C18.6724 17.645 17.5918 18.7255 17.5918 20.0536C17.7241 23.249 22.2778 23.248 22.4096 20.0536C22.4096 18.7255 21.329 17.645 20.0007 17.645Z" fill="#F44380"/>
<path d="M9.95146 21.233H5.01382C3.42075 21.1749 3.3995 18.9499 4.98054 18.8746H9.95154C10.4925 14.2365 14.1826 10.5465 18.8208 10.0053V5.16992C6.92547 5.76451 1.27747 16.9201 0.103602 19.5615C-0.0361582 19.8759 -0.0342832 20.234 0.107821 20.5474C1.26817 23.1056 6.93688 34.1232 18.8208 34.9177V30.1021C14.1825 29.5611 10.4924 25.8711 9.95146 21.233Z" fill="#F44380"/>
<path d="M21.1796 5.19048V2.03528C21.1173 0.470726 18.883 0.471897 18.8213 2.03528V5.16985C19.5942 5.13025 20.4133 5.1386 21.1796 5.19048Z" fill="#F44380"/>
<path d="M18.8203 34.9175V37.9652C18.8827 39.5297 21.1169 39.5286 21.1787 37.9652V34.9383C20.4056 34.9778 19.5867 34.9694 18.8203 34.9175Z" fill="#F44380"/>
</g>
<defs>
<clipPath id="clip0_386_95">
<rect width="40" height="40" fill="white"/>
</clipPath>
</defs>
</svg>
