<svg width="40" height="40" viewBox="0 0 40 40" fill="none" xmlns="http://www.w3.org/2000/svg">
<path d="M32.4922 30.9155C31.343 31.3187 30.1062 31.538 28.8179 31.538C22.7301 31.538 17.795 26.64 17.795 20.598C17.795 14.556 22.7301 9.65801 28.8179 9.65801C30.1062 9.65801 31.343 9.87735 32.4922 10.2805V9.29334C32.4922 5.26533 29.2022 2 25.1436 2H8.38184C9.20542 2.85178 9.71159 4.00822 9.71159 5.282V37.4716C9.71159 38.0536 10.3646 38.401 10.853 38.0791L12.2981 37.1266C12.3951 37.0623 12.516 37.0485 12.6239 37.0864C12.6394 37.0919 12.6546 37.0981 12.6694 37.1058L14.497 38.0382C15.0241 38.307 15.6497 38.307 16.1768 38.0382L18.0281 37.0937C18.1336 37.0401 18.2586 37.0401 18.364 37.0937L20.2155 38.0382C20.7426 38.307 21.368 38.307 21.8952 38.0382L23.7466 37.0937C23.852 37.0401 23.9771 37.0401 24.0825 37.0937L25.9339 38.0382C26.461 38.307 27.0865 38.307 27.6137 38.0382L29.4447 37.1043C29.5612 37.0445 29.7009 37.0514 29.8112 37.1218L31.3601 38.1093C31.8492 38.4215 32.4922 38.0729 32.4922 37.4959V30.9155Z" fill="#0044EB"/>
<path fill-rule="evenodd" clip-rule="evenodd" d="M32.4926 29.3522C33.0068 29.1394 33.4983 28.8832 33.9623 28.5884C36.6141 26.9035 38.3715 23.9542 38.3715 20.5976C38.3715 17.2409 36.6141 14.2916 33.9623 12.6067C33.4983 12.3119 33.0068 12.0557 32.4926 11.8429C31.3615 11.3747 30.1204 11.1162 28.8183 11.1162C23.5422 11.1162 19.2651 15.3612 19.2651 20.5976C19.2651 25.834 23.5422 30.0789 28.8183 30.0789C30.1204 30.0789 31.3615 29.8204 32.4926 29.3522ZM29.1857 21.6916C28.374 21.6916 27.716 21.0385 27.716 20.2329V16.5862C27.716 16.1834 28.045 15.8569 28.4509 15.8569C28.8567 15.8569 29.1857 16.1834 29.1857 16.5862V20.2329H32.86C33.2659 20.2329 33.5949 20.5594 33.5949 20.9622C33.5949 21.365 33.2659 21.6916 32.86 21.6916H29.1857Z" fill="#0044EB"/>
<path d="M4.99909 2.00057C6.79621 2.03408 8.24264 3.49037 8.24264 5.28198V12.9414C8.24187 13.3436 7.91317 13.6693 7.50778 13.6693H2.36377C2.33841 13.6693 2.31331 13.6681 2.28863 13.6655C1.91807 13.6283 1.62891 13.3176 1.62891 12.94V5.28198C1.62891 3.46788 3.1763 1.9666 4.99909 2.00057Z" fill="#0044EB"/>
</svg>
