<svg width="21" height="22" viewBox="0 0 21 22" fill="none" xmlns="http://www.w3.org/2000/svg">
<path d="M13.4114 9.45437L18.371 6.23284C18.8705 5.90983 19.0019 5.24682 18.6689 4.77081L17.0741 2.46726C16.7412 1.98275 16.0577 1.85525 15.567 2.17826L10.6074 5.39982L13.4114 9.45437Z" stroke="#0044EB" stroke-width="2" stroke-linecap="round" stroke-linejoin="round"/>
<path d="M10.9091 5.80664L6.72266 8.52658L8.96577 11.7755L13.1522 9.05552L10.9091 5.80664Z" stroke="#0044EB" stroke-width="2" stroke-linecap="round" stroke-linejoin="round"/>
<path d="M5.35018 13.8145L8.81137 11.5705L6.84857 8.73145L3.38738 10.9755C2.98431 11.239 2.87916 11.766 3.15079 12.157L4.14096 13.585C4.40383 13.9675 4.9471 14.0695 5.35018 13.8145Z" stroke="#0044EB" stroke-width="2" stroke-linecap="round" stroke-linejoin="round"/>
<path d="M10.8006 10.6699L6.86621 19" stroke="#0044EB" stroke-width="2" stroke-linecap="round" stroke-linejoin="round"/>
<path d="M10.7568 10.6699L14.6474 19" stroke="#0044EB" stroke-width="2" stroke-linecap="round" stroke-linejoin="round"/>
</svg>
