<svg width="22" height="22" viewBox="0 0 22 22" fill="none" xmlns="http://www.w3.org/2000/svg">
<path d="M19.5191 5.30378V7.30256C19.5191 8.60756 18.6932 9.4335 17.3882 9.4335H14.5635V3.66015C14.5635 2.74335 15.3151 2 16.2319 2C17.1322 2.00826 17.9581 2.37168 18.5528 2.96635C19.1475 3.56929 19.5191 4.39524 19.5191 5.30378Z" stroke="#0044EB" stroke-width="2" stroke-miterlimit="10" stroke-linecap="round" stroke-linejoin="round"/>
<path d="M3 6.12972V17.6929C3 18.3785 3.7764 18.7667 4.32152 18.3537L5.73388 17.2965C6.06425 17.0487 6.52678 17.0817 6.82412 17.3791L8.19518 18.7584C8.5173 19.0805 9.04592 19.0805 9.36804 18.7584L10.7556 17.3708C11.0447 17.0817 11.5072 17.0487 11.8293 17.2965L13.2417 18.3537C13.7868 18.7584 14.5632 18.3702 14.5632 17.6929V3.65189C14.5632 2.74335 15.3066 2 16.2151 2H7.12972H6.30378C3.82594 2 3 3.47844 3 5.30378V6.12972Z" stroke="#0044EB" stroke-width="2" stroke-miterlimit="10" stroke-linecap="round" stroke-linejoin="round"/>
<path d="M6.51074 8.60742H11.0534" stroke="#0044EB" stroke-width="2" stroke-linecap="round" stroke-linejoin="round"/>
<path d="M8.78125 10.8791V6.33643" stroke="#0044EB" stroke-width="2" stroke-linecap="round" stroke-linejoin="round"/>
</svg>
