<svg width="45" height="47" viewBox="0 0 45 47" fill="none" xmlns="http://www.w3.org/2000/svg">
<path d="M18.8611 0.0550152C17.5618 0.22449 15.9706 0.987128 14.8596 1.97573C14.2005 2.55948 13.3814 3.8023 13.033 4.77207C12.873 5.19576 12.7035 5.60061 12.647 5.66652C12.5999 5.72301 12.3175 5.82658 12.0256 5.88307C10.6698 6.16553 9.16334 7.03174 8.09 8.15215C7.25204 9.02777 6.9225 9.51737 6.34817 10.7225C5.74559 11.9842 5.51021 12.9257 5.45372 14.2156C5.3784 15.8633 5.42547 15.7597 4.48395 16.5129C2.77037 17.8781 1.57463 19.6859 1.12269 21.5783C0.896726 22.5105 0.924972 24.177 1.16977 25.1373C1.5558 26.6155 2.422 28.1125 3.56125 29.2989C4.06967 29.8261 4.22032 30.0427 4.2109 30.2404C4.2109 30.391 4.17324 31.0313 4.145 31.6809C4.04143 33.5075 4.39921 34.948 5.35957 36.5769C6.75303 38.9307 9.26691 40.6914 11.6584 40.9926C12.5905 41.1056 12.7223 41.1809 12.8918 41.7929C13.2684 43.064 14.144 44.401 15.1797 45.2672C15.8388 45.8133 17.3735 46.5947 18.2208 46.8113C19.1247 47.0372 20.6311 47.009 21.4691 46.7454C23.5122 46.1146 25.0469 44.5045 25.8755 42.1507C26.1579 41.3598 26.1673 41.2657 26.1862 39.6368C26.1956 38.7047 26.2615 37.3489 26.3462 36.624C26.5345 34.8727 26.3933 34.9763 28.6247 34.9763C30.9691 34.9763 30.7808 34.7786 30.8185 37.3019C30.8373 38.3752 30.8279 39.392 30.7902 39.5615C30.7526 39.7875 30.6019 39.9664 30.2065 40.2677C29.4815 40.8232 29.1426 41.454 29.1426 42.292C29.1426 44.8906 32.6733 45.6344 33.7466 43.2617C34.2268 42.2166 33.8784 41.0209 32.8804 40.2677L32.3438 39.8628V37.0006C32.3438 35.0987 32.3061 34.063 32.2402 33.9124C32.0519 33.5075 31.8165 33.4698 29.3874 33.4698H27.0994L26.8829 33.2345C26.6758 33.0085 26.6663 32.9802 26.7322 31.5679C26.8264 29.3271 26.8829 28.8563 27.0806 28.6586C27.2501 28.4892 27.5608 28.4797 34.1327 28.4797C40.8834 28.4797 41.0058 28.4797 41.1941 28.668C41.373 28.8469 41.3824 28.9787 41.3824 33.451C41.3824 36.9911 41.3542 38.0833 41.2694 38.1869C41.2035 38.2622 40.987 38.4505 40.7798 38.5917C40.2808 38.9589 39.876 39.8346 39.876 40.5313C39.8854 42.6403 42.5123 43.7137 44.0093 42.2166C45.1391 41.0868 44.8472 39.0813 43.4349 38.3564C43.2372 38.2622 43.0395 38.0927 42.983 37.9986C42.9265 37.8762 42.8889 36.012 42.8889 32.6225V27.4346L42.6535 27.2087L42.4275 26.9733H34.9518H27.4761L27.2218 26.7756L26.9582 26.5684L27.0241 24.0169C27.0806 21.9267 27.1183 21.4371 27.2407 21.2959C27.3725 21.1452 27.7962 21.1358 33.6242 21.1358H39.8666L40.2714 21.6725C40.8175 22.3975 41.4672 22.7364 42.2675 22.7364C44.8849 22.727 45.6475 19.2057 43.2655 18.1323C42.2204 17.6522 41.0246 18.0005 40.2714 18.9986L39.8666 19.5352H33.6242C27.7962 19.5352 27.3725 19.5258 27.2407 19.3657C27.1183 19.2339 27.0806 18.782 27.0241 16.9743C26.9582 14.7993 26.9676 14.7428 27.1559 14.5545C27.3537 14.3568 27.429 14.3568 30.7432 14.3568H34.1421L34.368 14.1214L34.6034 13.8955V10.553V7.21063L35.1777 6.71162C35.9121 6.08079 36.204 5.50646 36.204 4.67792C36.204 3.33153 35.1777 2.30527 33.8314 2.30527C32.4285 2.30527 31.4116 3.32212 31.4022 4.71558C31.4022 5.52529 31.7412 6.1467 32.485 6.73045L33.0499 7.17296L33.0781 9.80924L33.097 12.4549L32.8522 12.6527C32.6074 12.841 32.4944 12.8504 29.9429 12.8504H27.2877L27.0712 12.615C26.9206 12.4549 26.8452 12.2384 26.817 11.89C26.4498 7.1353 26.0073 4.64967 25.3011 3.30329C24.868 2.47474 23.7853 1.36374 22.9285 0.864729C21.7327 0.167999 20.2263 -0.13329 18.8611 0.0550152ZM20.4899 2.11696C22.3165 2.46533 23.7947 4.06592 24.5667 6.52331L24.8115 7.30478V23.4237C24.8115 39.4015 24.8115 39.5521 24.6138 40.2488C24.209 41.7176 23.3616 43.1676 22.4671 43.9114C21.874 44.4104 21.1584 44.7305 20.3393 44.8717C18.9646 45.1071 17.2981 44.5045 16.1589 43.3559C14.7278 41.9342 14.3888 40.2206 15.1985 38.507C15.6881 37.4619 17.204 36.0402 18.7293 35.2117C19.6425 34.7032 19.9156 34.1948 19.5861 33.5734C19.4542 33.3192 18.9458 32.9991 18.6634 32.9991C18.4562 32.9991 17.317 33.6299 16.3943 34.2513C14.8502 35.3058 13.7957 36.5204 13.1742 37.9892C12.9765 38.4411 12.7882 38.733 12.647 38.8083C12.1951 39.0343 10.811 38.6482 9.68118 37.9798C8.9562 37.5467 7.60982 36.1909 7.17672 35.447C6.33876 33.9971 6.06571 32.2082 6.44232 30.617C6.55531 30.1557 6.64005 29.7037 6.64005 29.6002C6.64005 29.2612 6.38583 28.9128 5.79267 28.4327C5.08652 27.8583 4.18266 26.7662 3.81546 26.0223C3.31645 25.0526 3.12815 24.1581 3.17522 23.0283C3.24113 21.3524 3.75897 20.2414 5.1336 18.8667C5.51963 18.4713 6.18811 17.9064 6.62121 17.6145C7.0449 17.3132 7.44034 16.9837 7.49684 16.8895C7.54391 16.786 7.6004 15.9762 7.61923 15.0818C7.64748 13.3023 7.77929 12.6527 8.34421 11.4946C8.98445 10.1764 10.2273 8.89596 11.3759 8.37812C12.4304 7.88853 12.7694 7.97326 13.0801 8.80181C13.5509 10.054 15.0102 11.8429 15.6599 11.9653C16.3001 12.0877 16.8085 11.6264 16.8085 10.9202C16.8085 10.666 16.6861 10.4589 16.1401 9.82807C15.368 8.93362 14.9914 8.19923 14.8219 7.29536C14.4359 5.09219 16.2719 2.71012 18.7858 2.17345C19.5484 2.00398 19.8497 1.99456 20.4899 2.11696Z" fill="#1540EC"/>
<path d="M13.0895 16.0611C12.1386 16.9461 11.0841 18.6973 10.6415 20.1473C10.0672 22.0209 10.0766 24.2147 10.6604 26.0789C11.1123 27.5289 12.3928 29.732 12.9106 29.9674C13.6262 30.297 14.3794 29.8356 14.3794 29.073C14.3794 28.8282 14.257 28.5645 13.9086 28.0655C13.2872 27.1711 12.9106 26.399 12.5999 25.401C12.374 24.6572 12.3457 24.4218 12.3457 23.1131C12.3363 21.8609 12.3645 21.5502 12.5528 20.9099C12.9106 19.6765 13.7203 18.2642 14.4547 17.6052C14.9255 17.1815 15.0479 16.6166 14.7654 16.1458C14.5771 15.8257 14.2758 15.675 13.8333 15.675C13.5791 15.675 13.4096 15.7598 13.0895 16.0611Z" fill="#1540EC"/>
</svg>
