<svg width="40" height="40" viewBox="0 0 40 40" fill="none" xmlns="http://www.w3.org/2000/svg">
<path d="M8.0297 0.290523C7.76561 0.383732 7.20636 0.70996 6.78692 1.02065C5.82377 1.75079 5.28006 2.79161 5.20238 4.06546L5.14024 5.04414L4.17709 5.10628C3.02752 5.18396 2.18865 5.55679 1.34978 6.39566C0.200208 7.56077 0.200208 7.49863 0.200208 16.6486C0.200208 25.6742 0.184673 25.5966 1.24103 26.8238C1.56726 27.1966 2.17312 27.6471 2.59255 27.8491C3.38482 28.2219 3.41589 28.2219 9.31908 28.2219H15.2689L15.4864 27.8802C15.5951 27.6782 15.8592 27.0568 16.0456 26.4665C16.232 25.8917 16.4806 25.3169 16.6204 25.1927C16.9622 24.8509 23.2071 24.8509 23.5489 25.1927C23.6887 25.3169 23.9372 25.8917 24.1237 26.4665C24.3101 27.0568 24.5742 27.6782 24.6829 27.8802L24.9004 28.2219H30.8502C36.7534 28.2219 36.7844 28.2219 37.5767 27.8491C38.5088 27.4141 39.3943 26.4354 39.7205 25.4567C40.0933 24.3849 40.0933 9.0987 39.7205 7.88699C39.2389 6.25585 37.5456 5.07521 35.6659 5.07521H34.9979V4.40722C34.9979 3.19551 34.5785 2.15469 33.7552 1.34688C32.4813 0.0575028 33.0095 0.104107 19.9448 0.119642C12.7367 0.135176 8.32486 0.197315 8.0297 0.290523ZM31.9842 2.06148C32.7765 2.43431 33.1804 3.11784 33.2581 4.1742L33.3202 5.07521H20.0846H6.84906L6.9112 4.1742C6.98887 3.11784 7.37724 2.44985 8.15398 2.07701C8.60448 1.84399 9.87833 1.81292 20.0536 1.81292C30.2599 1.81292 31.5182 1.84399 31.9842 2.06148ZM36.9553 7.03259C37.2505 7.1724 37.6388 7.51416 37.8408 7.77825L38.1826 8.25983L38.2292 16.5864L38.2602 24.8975L37.9185 25.4257C37.7165 25.7208 37.3126 26.0937 37.0175 26.2646C36.5048 26.5752 36.2407 26.5908 31.2075 26.5908H25.9568L25.5995 25.6276C24.7761 23.3596 24.714 23.3285 20.0846 23.3285C16.5272 23.3285 16.4184 23.344 15.8437 23.6858C15.2223 24.0742 14.9271 24.5557 14.4921 25.7985L14.228 26.5908H8.96178C3.92854 26.5908 3.66445 26.5752 3.1518 26.2646C2.85664 26.0937 2.45274 25.7208 2.25079 25.4257L1.90903 24.8975L1.9401 16.5864C1.9867 8.27536 1.9867 8.25983 2.32846 7.77825C3.07413 6.72189 1.97117 6.78403 20.0536 6.78403C34.8426 6.78403 36.4737 6.8151 36.9553 7.03259Z" fill="#1351D8"/>
<path d="M8.6665 10.4191C8.43348 10.7609 8.49562 11.025 9.69179 15.0329C10.3909 17.3786 11.0588 19.4448 11.1676 19.6312C11.4317 20.0506 12.022 20.0972 12.3482 19.7089C12.5657 19.4603 15.1134 11.2424 15.1134 10.7764C15.1134 10.4657 14.6008 10.0463 14.2124 10.0463C13.7153 10.0463 13.5133 10.4812 12.7055 13.2309C12.3016 14.5979 11.9288 15.8096 11.8666 15.9184C11.8045 16.0271 11.3851 14.8931 10.9346 13.3552C10.4841 11.8328 10.0025 10.4657 9.86267 10.3104C9.52091 9.93752 8.94612 9.98413 8.6665 10.4191Z" fill="#1351D8"/>
<path d="M18.6243 10.3725C18.4068 10.6832 18.3757 11.3202 18.3757 15.0174C18.3757 19.6468 18.4379 19.9885 19.2146 19.9885C19.8826 19.9885 20.0846 19.5536 20.0846 18.0778C20.0846 16.8816 20.1156 16.7262 20.3642 16.7262C20.504 16.7262 21.3584 17.4564 22.2594 18.3574C23.9372 20.0507 24.31 20.2371 24.7916 19.7089C25.2421 19.2118 25.0867 18.87 23.9372 17.7049C23.3158 17.0835 22.8497 16.5554 22.8963 16.5243C22.9274 16.5088 23.2536 16.2913 23.6109 16.0738C24.543 15.4679 25.1333 14.2251 25.0091 13.06C24.9003 12.0037 24.3721 11.1493 23.4711 10.559C22.8653 10.1551 22.6944 10.124 20.8458 10.0774C18.935 10.0152 18.8728 10.0308 18.6243 10.3725ZM22.8963 12.2056C23.2226 12.5319 23.3468 12.8115 23.3468 13.2154C23.3468 14.4737 22.6788 15.0174 21.1098 15.0174H20.0846V13.3863V11.7551H21.2652C22.3526 11.7551 22.4769 11.7862 22.8963 12.2056Z" fill="#1351D8"/>
<path d="M29.654 10.3881C27.4014 11.693 28.4267 15.1883 31.0055 14.9708C32.3104 14.8621 33.2891 13.8213 33.2891 12.5319C33.2891 10.6832 31.2385 9.47154 29.654 10.3881ZM31.5181 12.1435C31.7511 12.5008 31.7511 12.5629 31.5181 12.9202C31.0832 13.5727 30.0268 13.2931 30.0268 12.5319C30.0268 11.7707 31.0832 11.491 31.5181 12.1435Z" fill="#1351D8"/>
<path d="M0.604111 30.3812C0.246813 30.7696 0.122536 31.6551 0.340021 32.3075C0.448764 32.6027 0.852667 33.1619 1.25657 33.5348C3.35375 35.4921 8.52681 36.7815 16.2476 37.2786L19.1681 37.4651L18.3913 38.0554C17.8321 38.4593 17.5991 38.7389 17.5991 39.003C17.5991 39.4224 18.0496 39.8729 18.469 39.8574C18.6244 39.8574 19.6031 39.2205 20.6283 38.4282C23.1605 36.4864 23.1605 36.5951 20.6128 34.6843C19.5254 33.861 18.5622 33.193 18.469 33.193C18.0962 33.193 17.5991 33.6901 17.5991 34.0474C17.5991 34.3115 17.8321 34.6067 18.3913 35.0572L19.1836 35.6786H17.8787C14.9892 35.6786 9.78512 35.0416 7.12869 34.3736C5.04704 33.8299 3.29162 33.1153 2.54595 32.4629C1.90903 31.9347 1.87796 31.857 1.97117 31.2822C2.04884 30.8162 2.00223 30.5987 1.81582 30.3812C1.47405 30.0084 0.945875 30.0084 0.604111 30.3812Z" fill="#1351D8"/>
<path d="M38.3533 30.3812C38.1669 30.5987 38.1203 30.8162 38.198 31.2822C38.2912 31.857 38.2601 31.9347 37.6232 32.4629C36.396 33.5192 33.1492 34.529 29.2811 35.0572C28.0228 35.2281 26.6091 35.4145 26.1431 35.4766C25.3974 35.5854 25.2731 35.6475 25.1488 36.0359C24.776 37.1078 25.5838 37.2631 29.0636 36.766C36.4115 35.7407 40.1864 33.861 39.9223 31.3599C39.7981 30.2259 38.9592 29.7132 38.3533 30.3812Z" fill="#1351D8"/>
</svg>
