<svg width="50" height="50" viewBox="0 0 50 50" fill="none" xmlns="http://www.w3.org/2000/svg">
<path d="M26.5922 4.51848L26.4033 4.71604V12.7903V20.856L25.6302 21.2253C25.2007 21.4315 24.5393 21.8266 24.1442 22.1101L23.4398 22.6169L23.4141 15.6592L23.3969 8.71023L23.1736 8.53843C22.9502 8.36664 22.8557 8.35805 19.4972 8.35805C17.6075 8.35805 15.9669 8.38382 15.8552 8.40959C15.3913 8.53843 15.4085 8.04023 15.4085 20.04C15.4085 31.8507 15.3999 31.5157 15.7951 31.6703C15.8724 31.6961 16.7313 31.7219 17.6934 31.7219H19.4457V32.0998C19.4457 33.2766 20.0641 35.3811 20.82 36.7382C21.6704 38.2758 23.2681 39.9593 24.6424 40.7668C26.7383 42.0123 28.6881 42.5191 31.076 42.4332C32.8713 42.373 34.0566 42.081 35.5598 41.3423L36.3673 40.9557L38.403 42.9915C40.7737 45.3622 40.9455 45.4825 42.0364 45.534C43.2905 45.5942 44.1409 45.1303 44.6992 44.0738C44.9655 43.5842 44.9913 43.4639 44.9998 42.8025C44.9998 41.5484 44.9827 41.5227 42.5346 39.0574L40.3872 36.9014L40.6449 36.3946C41.0658 35.5614 41.3321 34.8485 41.5812 33.8779C41.8045 33.0361 41.8217 32.8471 41.8217 31.2924C41.8217 29.4628 41.7358 28.9217 41.2462 27.513C40.6793 25.9239 39.8804 24.6612 38.6006 23.3813C38.1024 22.8831 37.398 22.2733 37.0287 22.0242C36.3501 21.5689 34.7095 20.7271 34.5033 20.7271C34.4088 20.7271 34.3916 19.3528 34.3916 12.7388V4.74181L34.1769 4.53566L33.9707 4.32092H30.3717H26.7726L26.5922 4.51848ZM32.9314 12.9793V20.2633L32.3129 20.1602C31.1963 19.9627 28.7311 20.0657 28.0095 20.3406C27.8721 20.4007 27.8635 19.997 27.8635 13.048V5.69526H30.3975H32.9314V12.9793ZM22.0226 16.9219V24.017L21.5759 24.6268C20.5022 26.1043 19.7463 27.9854 19.4886 29.8493L19.4371 30.2616H18.1486H16.8688V20.04V9.81829H19.4457H22.0226V16.9219ZM32.1583 21.5861C32.9142 21.7064 34.0481 22.0585 34.7868 22.4021C35.7488 22.8402 36.6851 23.5188 37.6128 24.455C39.6485 26.4994 40.6363 29.2223 40.3958 32.1342C40.1381 35.2694 38.0852 38.3789 35.3279 39.8391C33.7904 40.6465 32.2958 41.0331 30.7325 41.0159C29.0575 41.0073 27.8034 40.7152 26.2744 39.9679C25.2437 39.4697 24.4277 38.877 23.5859 38.0009C22.83 37.2192 22.4005 36.6008 21.9023 35.6044C21.1722 34.1527 20.8887 32.9158 20.8801 31.2065C20.8715 28.5265 21.9538 26.0527 23.981 24.1544C25.5357 22.6942 27.1248 21.9297 29.4096 21.5603C29.8563 21.483 31.6258 21.5088 32.1583 21.5861ZM41.4953 40.071C42.5346 41.1275 43.4365 42.0724 43.4881 42.1755C43.6169 42.4332 43.6083 43.0258 43.4623 43.3007C43.2476 43.7044 42.8524 44.0137 42.4831 44.0652C41.6928 44.1683 41.6499 44.1425 39.5454 42.0638L37.587 40.1225L38.068 39.6931C38.6263 39.2035 39.4509 38.3273 39.4595 38.2242C39.4595 38.1899 39.4853 38.1641 39.5282 38.1641C39.5626 38.1641 40.4473 39.0231 41.4953 40.071Z" fill="#1351D8"/>
<path d="M30.2084 24.2059C29.9679 24.3691 29.882 24.79 30.0109 25.1079C30.1311 25.3913 30.4661 25.5373 30.9987 25.5373C31.5227 25.5373 32.5706 25.8294 33.1976 26.1472C35.0101 27.0491 36.1525 28.7585 36.3672 30.8801C36.4274 31.49 36.4617 31.6102 36.6679 31.782C36.9513 32.0311 37.3035 32.0311 37.6041 31.7992C37.8103 31.636 37.8275 31.5673 37.8275 31.0261C37.8275 28.286 35.9463 25.5889 33.3265 24.5839C32.1068 24.1115 30.6036 23.9311 30.2084 24.2059Z" fill="#1351D8"/>
<path d="M4.86911 12.4811C4.76603 12.524 4.64578 12.6357 4.59424 12.7302C4.52552 12.8504 4.49976 15.7537 4.49976 22.1015V31.301L4.7145 31.5072L4.92065 31.7219H8.49394H12.0672L12.282 31.5072L12.4881 31.301L12.4709 22.0242C12.4452 13.2456 12.4366 12.7388 12.2906 12.5928C12.1531 12.4467 11.8697 12.4381 8.59702 12.421C6.64717 12.4124 4.97219 12.4381 4.86911 12.4811ZM11.0279 22.0585V30.2617H8.49394H5.96V22.0585V13.8554H8.49394H11.0279V22.0585Z" fill="#1351D8"/>
</svg>
