<svg width="50" height="50" viewBox="0 0 50 50" fill="none" xmlns="http://www.w3.org/2000/svg">
<path d="M34.3874 7.15229C34.0782 7.40305 33.819 7.97978 33.819 8.43113C33.819 8.98279 34.0865 9.21682 35.2901 9.70997C37.455 10.5876 38.1403 11.0306 38.7421 11.9333C39.3607 12.8527 39.4192 13.2038 39.4192 15.8032C39.4192 17.0487 39.461 18.4863 39.5028 18.9962C39.6532 20.7347 40.1714 22.2225 41.1577 23.7605C41.9267 24.9557 41.9267 25.1647 41.1661 26.3181C40.5141 27.3128 40.2216 27.8812 39.9207 28.7922C39.5111 30.0293 39.4192 30.6478 39.3356 32.8628C39.2019 36.039 39.1433 36.599 38.8424 37.2008C38.5583 37.7775 37.9397 38.4462 37.4633 38.6886C37.2878 38.7805 36.7111 38.9978 36.1845 39.1817C34.9725 39.5996 34.5295 39.8253 34.1367 40.2265C33.6602 40.703 33.5599 41.171 33.7772 41.9149C34.1283 43.0935 34.9725 43.3776 36.5104 42.8176C39.3105 41.8063 40.6395 40.7615 41.5088 38.8892C42.1273 37.5769 42.1357 37.5184 42.1357 33.824C42.1357 30.6478 42.144 30.4973 42.3279 29.8621C42.5452 29.1182 42.9214 28.3325 43.4814 27.4716C44.0748 26.5438 44.2169 26.0841 44.2169 25.0477C44.2169 23.9945 44.0915 23.61 43.3476 22.4649C43.0802 22.0386 42.7375 21.4117 42.6037 21.0774C42.0855 19.832 42.0772 19.7568 42.0103 16.2713C41.9518 12.8527 41.9351 12.7106 41.4753 11.5906C41.024 10.4539 39.8622 9.13324 38.8007 8.53979C38.5165 8.38098 37.8562 8.07172 37.3296 7.84604C36.803 7.62037 36.2012 7.34454 35.9922 7.23588C35.4573 6.96005 34.6883 6.91826 34.3874 7.15229Z" fill="#1351D8"/>
<path d="M13.4662 7.66215C13.2406 7.74574 12.8226 7.92126 12.5468 8.055C12.271 8.18873 11.7277 8.43113 11.3348 8.58158C9.87212 9.16667 8.68522 10.2115 8.0667 11.4569C7.47325 12.6605 7.47325 12.6939 7.40639 16.2713C7.35623 19.2135 7.33952 19.5478 7.17235 20.1496C6.91324 21.0858 6.51204 21.9634 5.9771 22.7909C5.3335 23.7688 5.19141 24.1784 5.19141 25.0476C5.19141 25.9169 5.35857 26.4435 5.86844 27.1874C6.5789 28.2322 6.97175 29.1934 7.20578 30.4806C7.31444 31.1075 7.3228 31.5254 7.23086 33.9326C7.1222 36.8079 7.14727 37.3011 7.45654 38.2289C7.84938 39.399 8.55149 40.4522 9.44584 41.1877C10.0894 41.7227 11.8781 42.7173 12.597 42.943C13.4997 43.2272 14.16 43.1185 14.6281 42.6337C15.1546 42.0904 15.3385 41.1125 15.0293 40.5943C14.7618 40.168 14.16 39.7752 12.9564 39.2486C12.3128 38.9728 11.6525 38.6551 11.4853 38.5298C10.9754 38.1871 10.4572 37.4181 10.2315 36.7076C10.1897 36.5655 10.1229 35.1948 10.0811 33.6568C10.0226 31.3165 9.98078 30.7146 9.83032 29.9791C9.52106 28.4746 8.93597 27.0955 8.09178 25.9002C7.58191 25.1814 7.59027 24.939 8.10849 24.17C8.64343 23.3927 9.11986 22.4231 9.42076 21.512C9.86376 20.1496 9.93063 19.5812 9.98913 16.2713L10.0393 13.2205L10.3151 12.6605C10.6077 12.067 11.2011 11.4569 11.7695 11.1643C12.179 10.9554 13.7086 10.3034 14.0931 10.178C14.4943 10.0443 15.0293 9.65981 15.163 9.41742C15.4054 8.94935 15.0878 7.92126 14.6113 7.63708C14.3021 7.46155 14.0012 7.46155 13.4662 7.66215Z" fill="#1351D8"/>
</svg>
