<svg width="50" height="50" viewBox="0 0 50 50" fill="none" xmlns="http://www.w3.org/2000/svg">
<path d="M3.74637 5.09642C2.68256 5.34837 1.48811 6.37485 0.956206 7.48532L0.657593 8.11987V24.9635V41.8072L0.956206 42.4324C1.29215 43.1416 2.03868 43.9908 2.64524 44.3454C2.85986 44.476 3.29845 44.6626 3.6064 44.756C4.15696 44.9239 4.85684 44.9333 24.5 44.9333C44.1431 44.9333 44.843 44.9239 45.3936 44.756C45.7015 44.6626 46.1401 44.476 46.3547 44.3454C46.9613 43.9908 47.7078 43.1509 48.0437 42.4417L48.3424 41.8072V24.9635V8.11987L48.0437 7.48532C47.7078 6.78545 46.9613 5.93627 46.3734 5.59099C46.1681 5.46968 45.7482 5.28305 45.4495 5.1804C44.9083 4.99377 44.6937 4.99377 24.5093 5.0031C12.5928 5.01243 3.961 5.04976 3.74637 5.09642ZM44.983 7.392C45.4589 7.64396 45.8135 8.02656 46.0281 8.49314C46.1681 8.81975 46.1961 9.22101 46.2241 11.5446L46.2614 14.2321H24.5093H2.75722V11.7032C2.75722 10.1728 2.79454 9.02504 2.85986 8.77309C3.02783 8.10121 3.68105 7.45733 4.43691 7.22403C4.56756 7.18671 13.6566 7.15871 24.64 7.16804L44.6097 7.18671L44.983 7.392ZM46.2241 28.8082L46.1961 41.1539L45.9908 41.5365C45.7762 41.9471 45.3842 42.3111 44.899 42.5817C44.6284 42.731 43.3126 42.7403 24.5 42.7403C5.06214 42.7403 4.38092 42.731 4.06365 42.563C3.6064 42.3204 3.24246 41.9658 3.00917 41.5272L2.80387 41.1539L2.77588 28.8082L2.75722 16.4717H24.5H46.2427L46.2241 28.8082Z" fill="#1351D8"/>
<path d="M5.80869 9.33301C5.30478 9.51031 5.03417 9.79026 4.91285 10.2755C4.57691 11.6006 5.76203 12.5711 7.03114 11.9925C7.33908 11.8526 7.46973 11.7219 7.6097 11.414C8.03896 10.4715 7.64703 9.54763 6.7232 9.29568C6.26594 9.17437 6.24728 9.17437 5.80869 9.33301Z" fill="#1351D8"/>
<path d="M10.1012 9.31434C9.16799 9.61295 8.83205 10.7234 9.41062 11.5913C9.93319 12.3751 11.2676 12.3471 11.8089 11.5539C12.1075 11.1247 12.1261 10.3222 11.8555 9.87424C11.5569 9.361 10.7544 9.10904 10.1012 9.31434Z" fill="#1351D8"/>
<path d="M14.5151 9.25834C13.9272 9.4823 13.7592 9.61294 13.5726 10.0049C13.414 10.3315 13.386 10.5181 13.4233 10.882C13.498 11.4886 13.7686 11.8432 14.2818 12.0485C15.299 12.4311 16.2974 11.8245 16.3161 10.7981C16.3254 10.1635 16.0735 9.63161 15.6722 9.44497C15.3083 9.26767 14.7204 9.17436 14.5151 9.25834Z" fill="#1351D8"/>
<path d="M27.1129 21.4921C26.8049 21.6414 26.5436 22.1267 23.1189 28.9761C19.6755 35.8442 19.4516 36.3295 19.4889 36.7027C19.5355 37.16 19.7502 37.4399 20.1888 37.6266C20.5434 37.7759 21.1126 37.6639 21.3552 37.4026C21.4299 37.3093 23.1002 34.0246 25.0692 30.0959C28.9045 22.4066 28.9232 22.3786 28.5033 21.8467C28.3073 21.5948 27.8127 21.3242 27.5608 21.3242C27.4955 21.3242 27.2902 21.3988 27.1129 21.4921Z" fill="#1351D8"/>
<path d="M12.2568 26.1486C9.95186 28.4442 8.88805 29.5827 8.8134 29.788C8.74807 30.0119 8.74807 30.1799 8.8134 30.4038C8.88805 30.6091 9.95186 31.7383 12.2568 34.0339C15.8868 37.6545 15.8681 37.6452 16.5493 37.3093C17.0159 37.076 17.2679 36.6001 17.1839 36.1148C17.1186 35.7882 16.7826 35.4149 14.3004 32.9141L11.4916 30.0959L14.3004 27.2684C16.1947 25.3741 17.1372 24.3663 17.1839 24.189C17.2679 23.8157 17.0812 23.2371 16.7826 23.0132C16.6147 22.8732 16.4094 22.8172 16.0641 22.8172H15.5975L12.2568 26.1486Z" fill="#1351D8"/>
<path d="M32.0774 22.9665C31.6575 23.2558 31.4708 23.909 31.6948 24.3383C31.7508 24.4503 33.0385 25.794 34.5596 27.3151L37.3311 30.0959L34.5596 32.8674C33.0385 34.3978 31.7508 35.7416 31.6948 35.8536C31.2842 36.6654 32.1427 37.6732 33.0199 37.3839C33.2252 37.3093 34.3356 36.2641 36.5473 34.0432C38.3296 32.2515 39.832 30.7025 39.888 30.5905C40.028 30.3105 40.0186 29.8533 39.86 29.5547C39.7853 29.4147 38.2643 27.847 36.4726 26.0553L33.2159 22.8172H32.7493C32.4787 22.8172 32.1987 22.8826 32.0774 22.9665Z" fill="#1351D8"/>
</svg>
