<svg width="50" height="50" viewBox="0 0 50 50" fill="none" xmlns="http://www.w3.org/2000/svg">
<path d="M37.7531 19.7739C37.9436 20.0881 38.0674 20.4404 38.1531 20.7927C38.2388 21.1355 38.4101 21.2307 38.7529 21.2307C40.1241 21.2212 41.2381 21.783 41.9999 22.9256C42.8568 24.2015 42.933 25.5726 42.2093 26.9343C41.4952 28.2673 40.3431 28.9529 38.8291 28.9719C38.4292 28.9814 38.2388 29.0862 38.134 29.4766C37.9436 30.1526 37.6674 30.7906 37.3342 31.4095C37.1818 31.6952 37.2104 31.8666 37.4389 32.1046C38.8481 33.5519 39.0195 35.6086 37.8864 37.1702C36.5058 39.0936 33.7445 39.3316 32.021 37.6558C31.7354 37.3797 31.5164 37.3416 31.1736 37.5225C30.5642 37.8558 29.9072 38.1224 29.2406 38.3128C28.936 38.3985 28.8407 38.5413 28.8407 38.8556C28.8122 40.6361 27.8695 41.9882 26.2603 42.5881C23.8227 43.5022 21.1186 41.6645 21.0709 39.0555C21.0614 38.3128 21.109 38.4747 20.4901 38.2462C20.2425 38.1509 19.995 38.0462 19.7474 37.9415C19.4618 37.532 19.4808 37.4654 19.9188 37.2083C20.0807 37.1131 20.1283 36.9131 20.3187 36.856C20.5092 36.7608 20.6805 36.875 20.8519 36.9322C21.2042 37.0464 21.5661 37.1226 21.8993 37.2654C22.2516 37.4082 22.4516 37.6463 22.4421 38.0462C22.4326 38.5128 22.4421 38.9793 22.5278 39.4364C22.7753 40.7123 23.9275 41.5407 25.2986 41.4169C26.4888 41.3122 27.4315 40.2553 27.441 39.0079C27.441 38.7127 27.4315 38.4176 27.4506 38.1224C27.4886 37.5892 27.6696 37.3416 28.1837 37.1988C29.2883 36.8941 30.3357 36.4561 31.3259 35.8848C31.6878 35.6753 32.021 35.7324 32.3257 36.0276C32.6209 36.3037 32.8875 36.6084 33.2208 36.8465C34.1825 37.5606 35.3917 37.5511 36.3249 36.8274C37.1914 36.1514 37.477 34.9326 37.0295 33.8661C36.9057 33.5805 36.7248 33.3424 36.4963 33.1234C36.2773 32.914 36.0773 32.6759 35.8773 32.4474C35.6012 32.1236 35.5726 31.7904 35.7726 31.4381C36.3534 30.4192 36.7724 29.3433 37.1057 28.2197C37.2294 27.7912 37.4865 27.6294 37.9626 27.6103C38.4673 27.5913 38.9624 27.6389 39.4575 27.5056C40.6002 27.2009 41.4381 26.0487 41.3143 24.9156C41.181 23.6397 40.1907 22.6685 38.9529 22.6018C38.6387 22.5828 38.3149 22.6018 38.0007 22.5923C37.5151 22.5733 37.2009 22.3638 37.0866 21.8972C36.9724 21.4497 36.7438 21.0307 36.7438 20.5547C36.8962 20.2785 37.1247 20.0595 37.2866 19.7929C37.3913 19.5929 37.5818 19.5263 37.7531 19.7739Z" fill="#1351D8"/>
<path d="M24.575 7.41455C24.8511 7.31934 25.1272 7.31934 25.4129 7.41455C25.6033 7.79543 25.4034 8.26199 25.013 8.34769C24.7749 8.3953 24.5464 8.47147 24.4321 8.71904C24.3179 8.85235 24.1465 8.86187 24.0037 8.92852C23.6037 8.81426 23.48 9.18561 23.2514 9.37604C22.6992 9.93783 22.4706 10.6329 22.423 11.4042C22.404 11.6518 22.404 11.8898 22.423 12.1374C22.4516 12.5754 22.2136 12.8134 21.8422 12.9658C21.5089 13.0991 21.1662 13.1752 20.8329 13.299C20.0902 13.5561 19.3856 13.8989 18.7 14.2703C18.262 14.5083 17.8907 14.4893 17.5384 14.1274C17.3003 13.8894 16.9766 13.737 16.8623 13.3847C16.9194 13.1372 17.0623 13.1086 17.2717 13.2133C17.4241 13.2895 17.5764 13.3657 17.7669 13.5276C17.624 13.1372 17.4527 12.7944 17.9097 12.5944C18.0906 12.8705 18.3096 12.8991 18.5953 12.7468C19.2999 12.3849 20.0331 12.0707 20.7948 11.8517C21.0329 11.7851 21.09 11.6327 21.0805 11.4137C21.0614 10.9376 21.1376 10.4711 21.2995 10.014C21.5946 10.2521 21.7565 10.0045 21.8708 9.81405C21.9946 9.60457 22.1183 9.42365 22.385 9.40461C22.4706 9.39509 22.5563 9.32844 22.5849 9.25226C22.7468 8.77617 23.2229 8.55717 23.4609 8.14773C23.5466 7.99538 23.7085 7.91921 23.8704 7.86208C24.0227 7.81447 24.1274 7.73829 24.156 7.57642C24.2512 7.37647 24.4512 7.52881 24.575 7.41455Z" fill="#1351D8"/>
<path d="M20.3377 36.9703C20.2044 37.1797 20.1568 37.4464 19.814 37.4844C19.595 37.513 19.8045 37.7987 19.7283 37.951C19.3475 37.8463 18.9952 37.6749 18.6524 37.4844C18.3477 37.313 18.1382 37.3607 17.8906 37.6082C16.7194 38.7604 15.3388 38.9984 13.7962 38.5318C13.7582 38.5223 13.7296 38.5033 13.701 38.4842C13.6629 38.4081 13.5868 38.3604 13.5392 38.2938C13.3392 37.9986 13.4344 37.7225 13.7867 37.6463C13.9962 37.5987 14.1771 37.5416 14.3295 37.3892C14.4342 37.313 14.5389 37.3416 14.6437 37.3607C15.6149 37.5225 16.4243 37.1988 17.1194 36.5227C17.2812 36.3609 17.4526 36.199 17.6145 36.0371C17.8811 35.78 18.1858 35.7229 18.5286 35.8943C19.0618 36.1609 19.5855 36.4561 20.1473 36.6846C20.2711 36.7132 20.3853 36.7989 20.3377 36.9703Z" fill="#1351D8"/>
<path d="M37.7533 19.7739C37.6104 19.7167 37.4581 19.7453 37.42 19.8881C37.3343 20.2214 37.0582 20.3737 36.8582 20.6023C36.6678 20.6499 36.6011 20.507 36.544 20.3737C36.2964 19.812 36.0489 19.2597 35.7442 18.7265C35.5157 18.3266 35.5728 18.079 35.906 17.7362C36.1441 17.4886 36.4012 17.2601 36.6107 16.9935C37.1153 16.3651 37.3534 15.6604 37.2105 14.8416C37.1915 14.7559 37.182 14.6702 37.201 14.5845C37.3724 14.375 37.42 14.0893 37.62 13.8894C37.9818 13.5371 38.058 13.5276 38.3436 13.9656C38.4293 14.2798 38.515 14.6035 38.5626 14.9273C38.7055 16.1365 38.3246 17.1744 37.4771 18.0219C37.201 18.298 37.1344 18.5075 37.3438 18.8407C37.5248 19.1264 37.6771 19.4311 37.7533 19.7739Z" fill="#1351D8"/>
<path d="M11.3492 14.5464C11.5302 13.1086 12.9013 11.7184 14.3962 11.4709C14.8057 11.4042 15.2151 11.3185 15.6245 11.4613C15.5388 11.547 15.4341 11.4804 15.3579 11.4994C15.7674 11.528 16.1768 11.5756 16.5481 11.7946C16.6434 11.8517 16.7576 11.8803 16.7481 12.0136C16.7386 12.1279 16.6529 12.1755 16.5577 12.2136C16.5196 12.2231 16.472 12.2326 16.4625 12.2612C16.1292 12.7563 15.6436 12.5944 15.177 12.6135C14.5581 12.642 13.9963 12.8515 13.5678 13.3371C13.2822 13.6037 13.0727 13.937 12.8537 14.2607C12.6347 14.6797 12.33 15.0891 12.3395 15.5462C12.349 15.9461 12.2252 16.2698 12.111 16.6222C12.0634 16.7745 11.9777 16.8983 11.8063 16.8792C11.6349 16.8697 11.6159 16.7078 11.5682 16.5936C11.3112 15.9366 11.3588 15.2415 11.3492 14.5464Z" fill="#1351D8"/>
<path d="M10.0351 21.3926C10.4255 21.3069 10.8254 21.2117 11.2253 21.2402C11.4919 21.2593 11.6157 21.1545 11.6919 20.8974C11.8728 20.25 12.1299 19.6215 12.4441 19.0312C12.6822 18.5932 12.7393 18.2599 12.3108 17.9457C12.4536 17.7362 12.4632 17.7362 12.7107 17.9076C12.825 17.9933 12.9297 18.1076 13.1011 18.0409C13.3487 17.9457 13.3582 17.7648 13.1392 17.4982C12.9012 17.203 12.9107 17.1363 13.1963 16.9935C13.5962 17.222 13.9009 17.5648 14.1676 17.9266C14.3485 18.1742 14.3104 18.4979 14.158 18.7646C13.5867 19.7643 13.1582 20.8308 12.8345 21.9353C12.6822 22.44 12.4346 22.6209 11.9204 22.6018C11.1682 22.5828 10.435 22.6495 9.73039 22.9065C9.60661 22.878 9.51139 22.7828 9.559 22.678C9.68278 22.4114 9.73992 22.1067 9.92083 21.8687C10.0827 21.6211 10.1017 21.6401 10.0351 21.3926Z" fill="#1351D8"/>
<path d="M31.3546 12.7849C31.6403 12.9372 31.8022 12.7563 31.9736 12.5754C33.0114 11.5375 34.2683 11.2614 35.668 11.5375C35.8013 11.5661 35.9346 11.5851 36.0394 11.6804C36.0298 11.6994 36.0203 11.728 36.0203 11.747C36.0394 11.9184 36.3345 12.0898 36.0965 12.2421C35.8584 12.3945 35.6014 12.604 35.2681 12.4992C35.23 12.4897 35.2014 12.4802 35.1634 12.4802C35.1253 12.4421 35.1538 12.4897 35.1634 12.4897C35.2586 12.5088 35.3062 12.5754 35.2586 12.6801C35.1253 12.8325 34.9444 12.8039 34.7825 12.8039C34.0303 12.7944 33.4209 13.1086 32.8781 13.6038C32.6686 13.7942 32.4877 14.0037 32.2783 14.1941C32.0212 14.4322 31.726 14.4798 31.4022 14.3274C31.1356 14.2036 30.8881 14.0608 30.631 13.9085C30.2882 13.6038 30.412 12.8896 30.8214 12.7087C31.0214 12.6325 31.1737 12.823 31.3546 12.7849Z" fill="#1351D8"/>
<path d="M11.7111 36.6275C10.9207 35.304 11.2445 33.2377 12.3871 32.1998C12.4918 32.1332 12.568 32.038 12.6632 31.9618C12.8251 31.8475 12.8441 31.7428 12.7204 31.5714C12.5299 31.2858 12.6061 30.962 12.8918 30.743C12.9298 30.7144 12.9775 30.6954 13.0155 30.6573C13.3393 30.3145 13.4155 30.3145 13.7297 30.6859C13.882 30.943 14.0058 31.2096 14.1391 31.4667C14.3295 31.819 14.2724 32.1808 13.9963 32.476C13.8535 32.6283 13.7106 32.7807 13.5583 32.9235C12.987 33.4758 12.6632 34.1423 12.6251 34.9421C12.6156 35.0659 12.6156 35.1897 12.5299 35.2944C12.4442 35.3896 12.349 35.4753 12.3395 35.6277C12.3109 36.0562 12.0348 36.3609 11.7111 36.6275Z" fill="#1351D8"/>
<path d="M10.0351 21.3926C10.1208 21.4497 10.216 21.4592 10.3113 21.4307C10.416 21.4116 10.5493 21.3831 10.5874 21.5259C10.6255 21.6592 10.5493 21.7639 10.435 21.8306C10.3589 21.8687 10.2732 21.8877 10.197 21.9068C10.0827 21.9353 9.978 21.9639 9.94943 22.0877C9.8923 22.2686 10.0923 22.2495 10.1684 22.3543C10.0446 22.5352 9.64473 22.4305 9.68282 22.7828C9.73995 22.897 9.71139 22.9922 9.60665 23.0684C9.0639 23.4969 8.76873 24.0682 8.59734 24.7157C8.38786 25.0966 8.1022 25.4108 7.7975 25.7155C7.70229 25.8107 7.59755 25.8583 7.46424 25.8107C7.34046 25.7726 7.33094 25.6679 7.30237 25.5536C7.23572 25.2394 7.32141 24.9252 7.23572 24.6205C7.46424 23.0303 8.52116 21.802 10.0351 21.3926Z" fill="#1351D8"/>
<path d="M7.2452 24.63C7.3785 24.8871 7.26424 25.1823 7.35946 25.4584C7.38803 25.5441 7.38803 25.6679 7.51181 25.6774C7.62607 25.6964 7.69272 25.6108 7.74033 25.5155C7.81651 25.3632 7.92125 25.2489 8.08312 25.1632C8.28308 25.068 8.33068 24.849 8.34973 24.63C8.34973 24.6205 8.35925 24.6014 8.36877 24.6014C8.38782 24.6014 8.40686 24.611 8.4259 24.6205C8.60682 24.7062 8.58777 24.8776 8.5973 25.0299C8.60682 25.9154 8.97817 26.6105 9.68278 27.1438C9.778 27.2199 9.89226 27.2771 9.9113 27.4104C9.80656 27.8769 9.50187 28.1816 9.07339 28.3721C7.95933 27.7151 7.38803 26.7153 7.2452 25.4584C7.20711 25.1918 7.2452 24.9061 7.2452 24.63Z" fill="#1351D8"/>
<path d="M35.2491 12.6421C35.1062 12.5468 34.9444 12.5754 34.792 12.5564C34.7158 12.5468 34.5921 12.5754 34.6111 12.4421C34.6206 12.3564 34.7254 12.3564 34.792 12.3659C35.011 12.3945 35.23 12.4516 35.4395 12.3659C35.6299 12.2898 35.8204 12.2041 36.0108 12.1184C36.0203 11.9755 35.4776 11.7756 36.0489 11.6804C36.8582 11.9565 37.5152 12.4421 37.9818 13.1658C38.1437 13.4133 38.3056 13.6609 38.3532 13.9561C38.1246 13.7371 37.9628 13.7275 37.7533 14.0227C37.62 14.2227 37.4676 14.4036 37.3819 14.6321C37.182 14.6702 37.1344 14.5083 37.0868 14.375C36.7821 13.6799 36.2869 13.1943 35.5728 12.9372C35.4204 12.8896 35.2395 12.8611 35.2491 12.6421Z" fill="#1351D8"/>
<path d="M11.7111 36.6275C11.7111 36.437 11.8348 36.2847 11.892 36.1133C11.9681 35.9038 12.2062 35.8181 12.2443 35.5705C12.2728 35.3706 12.2348 35.1611 12.3109 34.9516C12.3585 35.0659 12.4062 35.1706 12.4538 35.2849C12.7204 35.4563 12.7394 35.78 12.8918 36.0181C13.206 36.5227 13.5964 36.9131 14.1296 37.1797C14.2534 37.2369 14.4248 37.275 14.3676 37.4844C14.2534 37.6844 14.1677 37.8939 13.8535 37.8177C13.663 37.7701 13.5678 37.9224 13.6059 38.1129C13.6249 38.2271 13.663 38.3509 13.6916 38.4652C12.8156 38.1033 12.13 37.513 11.7111 36.6275Z" fill="#1351D8"/>
<path d="M9.07336 28.3911C9.10193 28.1245 9.3495 28.0198 9.49232 27.8484C9.58754 27.7246 9.7018 27.6198 9.79702 27.4961C9.91128 27.4389 10.0255 27.3913 10.1493 27.4389C10.7397 27.6484 11.3586 27.6008 11.968 27.6198C12.3203 27.6294 12.6155 27.7531 12.7107 28.1435C12.7107 28.2007 12.6916 28.2673 12.644 28.3054C12.3013 28.5434 11.9966 28.8386 11.6347 29.0576C11.4538 28.9529 11.2539 28.9815 11.0634 28.9815C10.3493 28.991 9.68276 28.772 9.07336 28.3911Z" fill="#1351D8"/>
<path d="M11.6443 29.0481C11.73 28.4958 12.2156 28.4196 12.606 28.2292C12.7869 28.2197 12.825 28.353 12.8726 28.4863C13.0916 29.1433 13.3296 29.8003 13.6153 30.4383C13.6724 30.5621 13.7105 30.6954 13.5677 30.8001C13.463 30.7239 13.3677 30.6382 13.263 30.5621C13.2059 30.6858 13.3201 30.8382 13.282 30.9905C12.825 30.9239 12.6822 31.1334 12.8345 31.6095C12.9678 31.9998 12.606 32.057 12.387 32.1903C12.7488 31.9141 12.6726 31.6285 12.4917 31.2476C12.1489 30.5525 11.8062 29.8289 11.6443 29.0481Z" fill="#1351D8"/>
<path d="M13.1203 17.0506C13.0727 17.3458 13.3488 17.4315 13.4916 17.5934C13.6535 17.7838 13.7678 17.9266 13.444 18.0504C13.425 18.0599 13.4059 18.079 13.3774 18.0885C13.2345 18.1456 13.3298 18.4884 13.0346 18.3551C12.8727 18.2789 12.7394 18.1932 12.6156 18.0599C12.5299 17.9742 12.4538 17.86 12.3014 17.9361C11.4064 16.9649 11.0921 15.8318 11.3492 14.5464C11.473 14.7463 11.4349 14.9749 11.4254 15.1939C11.4064 15.6795 11.5206 16.1365 11.6635 16.5936C11.692 16.6698 11.7111 16.7745 11.8158 16.765C11.911 16.7554 11.892 16.6602 11.9205 16.5936C12.2348 15.8794 12.2348 15.0796 12.5109 14.356C12.549 14.2607 12.5109 14.0417 12.7394 14.1179C12.8251 14.2703 12.768 14.4226 12.7299 14.575C12.5204 15.3081 12.6632 15.9842 13.0251 16.6412C13.1012 16.7554 13.2536 16.8792 13.1203 17.0506Z" fill="#1351D8"/>
<path d="M31.3546 12.7849C31.2689 12.8325 31.1927 12.8896 31.0785 12.8515C30.9071 12.7944 30.8309 12.8991 30.7833 13.0324C30.7547 13.0991 30.7547 13.2038 30.7071 13.2324C30.4024 13.4419 30.5548 13.6037 30.7547 13.7561C30.6405 13.9084 30.4976 13.8704 30.3643 13.8037C29.6216 13.4609 28.8504 13.1657 28.0601 12.9467C27.9363 12.9086 27.8315 12.8515 27.7935 12.7182C27.8506 12.0136 28.3362 11.6518 29.0122 11.8136C29.8406 12.0326 30.6119 12.3659 31.3546 12.7849Z" fill="#1351D8"/>
<path d="M29.0123 11.8231C28.8409 11.8612 28.6504 11.8803 28.4886 11.9469C28.3362 12.0041 28.1648 12.0898 28.3267 12.3183C28.441 12.4897 28.3172 12.5373 28.1648 12.4992C28.0125 12.4611 27.9268 12.4992 27.8982 12.6515C27.584 12.6325 27.4126 12.4706 27.4602 12.0993C27.5364 11.5089 27.4126 10.9376 27.3459 10.3663C27.4602 10.0045 27.7078 9.71882 27.8506 9.37604C27.9363 9.1856 28.1172 9.19512 28.2791 9.32843C28.7076 9.94735 28.8123 10.652 28.8504 11.3756C28.8504 11.547 28.8409 11.7184 29.0123 11.8231Z" fill="#1351D8"/>
<path d="M13.425 13.2324C13.3869 13.0895 13.4917 13.0229 13.5869 12.9753C14.0058 12.7277 14.4438 12.5468 14.9295 12.4992C15.177 12.4706 15.4151 12.4992 15.615 12.2992C15.6912 12.223 15.8531 12.1564 15.834 12.3849C15.834 12.4325 15.7293 12.4801 15.8245 12.5277C15.9007 12.5658 15.9769 12.4992 16.0054 12.4325C16.1197 12.1564 16.3577 12.0707 16.672 12.0136C16.1102 11.6137 15.5103 11.5375 14.9009 11.4518C15.1389 11.4518 15.3865 11.4518 15.6246 11.4518C16.5291 11.5184 17.2623 11.9374 17.8907 12.5658C17.8241 12.6896 18.005 12.861 17.7765 12.9657C17.6717 13.0229 17.7765 13.1371 17.8527 13.1943C18.005 13.299 18.0526 13.4323 17.9764 13.6037C17.9288 13.7084 17.9098 13.8608 17.767 13.8703C17.6432 13.8798 17.5956 13.7561 17.5384 13.6608C17.4051 13.4323 17.2052 13.299 16.929 13.299C16.7672 13.4038 16.6529 13.2895 16.5291 13.2228C15.6341 12.6801 14.7295 12.7087 13.8154 13.1657C13.7011 13.2324 13.5774 13.3371 13.425 13.2324Z" fill="#1351D8"/>
<path d="M24.2228 7.56693C24.2228 7.69071 24.2133 7.84306 24.0895 7.88115C23.6324 8.04302 23.4801 8.52863 23.0992 8.76668C22.8231 8.93807 22.8897 9.33799 22.6326 9.5189C22.585 9.54747 22.5279 9.65221 22.5184 9.64268C22.1565 9.48081 22.1185 9.81408 21.9756 9.98547C21.7852 10.233 21.4424 10.3378 21.3186 10.6996C21.1758 10.4235 21.4329 10.2045 21.2901 9.98547C21.6995 8.7762 22.5279 7.98589 23.7181 7.56693C23.88 7.68119 24.0514 7.41458 24.2228 7.56693Z" fill="#1351D8"/>
<path d="M28.2694 9.32846C28.1837 9.33798 28.0599 9.32846 28.0408 9.40464C27.9456 9.76646 27.6124 10.0045 27.5267 10.3663C27.3934 10.4139 27.2981 10.3568 27.2601 10.2521C27.0601 9.77598 26.7078 9.4332 26.3174 9.1285C26.2793 9.09994 26.2603 9.05233 26.2412 9.00472C26.2222 8.75715 26.2127 8.51911 26.4126 8.32867C26.5078 8.24297 26.4602 8.12871 26.4412 8.02397C26.4126 7.87162 26.4031 7.70975 26.6507 7.78593C27.1934 8.10967 27.7457 8.41437 28.0885 8.97615C28.1646 9.09042 28.2503 9.19516 28.2694 9.32846Z" fill="#1351D8"/>
<path d="M26.6508 7.78593C26.508 7.87163 26.5651 7.93828 26.6699 7.99541C26.9651 8.14776 26.8508 8.29059 26.6508 8.41437C26.4318 8.53815 26.3557 8.71907 26.3557 8.95711C26.2414 9.09042 26.1081 9.01424 25.9843 8.97616C25.5558 8.82381 25.1273 8.72859 24.6703 8.75716C24.5465 8.76668 24.4323 8.73811 24.3656 8.60481C24.4132 8.40485 24.4132 8.39533 24.8131 8.23346C24.8988 8.19537 25.0036 8.17633 25.0893 8.15728C25.1654 8.13824 25.2416 8.12872 25.2511 8.04302C25.2606 7.95732 25.175 7.92876 25.1083 7.89067C25.0131 7.84306 24.8131 7.88115 24.8512 7.70024C24.8893 7.53837 25.0607 7.63358 25.1654 7.62406C25.2226 7.61454 25.2797 7.60502 25.3273 7.5955C25.3368 7.50028 25.2797 7.50028 25.2321 7.49076C25.1845 7.48123 25.1369 7.48123 25.0893 7.43363C25.1845 7.4241 25.2892 7.41458 25.3844 7.40506C25.8605 7.43363 26.27 7.56693 26.6508 7.78593Z" fill="#1351D8"/>
<path d="M47.2369 31.0191C46.7417 33.0282 45.9419 34.9231 44.8945 36.7037C42.8188 40.2172 40.0193 43.0071 36.5058 45.0638C34.3634 46.3207 32.0686 47.1776 29.6311 47.6823C29.5454 47.7013 29.4597 47.7013 29.374 47.7109C29.3454 47.6633 29.3073 47.6061 29.2692 47.568C29.0026 47.2729 29.0407 47.0824 29.3549 46.8158C29.7072 46.5206 30.1452 46.4921 30.5452 46.3397C30.9451 46.1969 31.3735 46.1493 31.7163 45.8636C32.8589 45.4352 34.0016 44.9971 35.0775 44.4163C39.7718 41.893 43.1425 38.17 45.1897 33.2472C45.2563 33.0854 45.323 32.933 45.3992 32.7807C45.5896 32.6378 45.6563 32.4093 45.7134 32.1998C45.9038 31.4667 46.2466 30.7906 46.3609 30.0384C46.399 29.8099 46.5132 29.629 46.6941 29.4861C46.9703 29.2671 47.2464 29.3623 47.313 29.7147C47.3416 29.886 47.313 30.0479 47.2464 30.2193C47.1321 30.4764 47.1226 30.7525 47.2369 31.0191Z" fill="#1351D8"/>
<path d="M13.7676 43.8926C16.6432 45.5113 19.6902 46.5492 22.9943 46.8253C24.7082 46.9681 26.4126 46.9301 28.117 46.6825C28.2122 46.673 28.3074 46.673 28.4122 46.6635C28.555 46.8729 28.4122 47.0158 28.2884 47.13C28.0599 47.33 27.8123 47.5109 27.7171 47.8251C27.6504 48.0346 27.4314 47.9108 27.3076 47.9965C26.2602 48.1489 25.2128 48.1679 24.1559 48.1298C21.3089 48.0155 18.5666 47.4347 15.9481 46.3016C14.9674 45.8827 14.0057 45.4351 13.1106 44.8448C12.9202 44.4354 13.2249 43.9973 13.7676 43.8926Z" fill="#1351D8"/>
<path d="M13.7678 43.8926C13.5869 44.0925 13.406 44.283 13.2251 44.4829C13.1299 44.5877 13.1108 44.721 13.1108 44.8543C12.3396 44.4163 11.6254 43.8926 10.8066 43.3022C10.9779 43.9497 11.1112 44.4924 11.2541 45.0352C11.3588 45.4256 11.4636 45.816 11.5683 46.2064C11.673 46.6063 11.5112 46.93 11.1684 47.0252C10.8256 47.1205 10.5209 46.9205 10.4066 46.5111C9.9972 44.9781 9.57824 43.4355 9.17832 41.9025C9.00693 41.2265 9.33067 40.8837 10.0067 41.0551C11.6921 41.4836 13.3679 41.9311 15.0438 42.3786C15.4246 42.4833 15.596 42.7595 15.5198 43.0832C15.4437 43.4165 15.1485 43.5974 14.7486 43.5212C14.1487 43.3974 13.5774 43.1784 12.968 43.1118C12.8918 43.1023 12.8252 43.0737 12.7204 43.1404C13.0156 43.4831 13.4822 43.5784 13.7678 43.8926Z" fill="#1351D8"/>
<path d="M46.5702 28.2102C46.5988 27.477 46.713 26.7533 46.7416 26.0202C46.8559 23.2493 46.475 20.5451 45.5514 17.9266C45.5133 17.8219 45.4752 17.7172 45.4466 17.6124C45.3324 17.1935 45.4657 16.8888 45.818 16.7745C46.1417 16.6793 46.456 16.8507 46.5893 17.222C46.8464 17.9457 47.0844 18.6789 47.2844 19.4311C47.8938 21.8115 48.0937 24.2301 47.9604 26.6867C47.9509 26.8581 47.9223 27.0295 47.8938 27.2009C47.8176 27.8864 47.1987 28.1626 46.7987 28.6101C46.7511 28.6577 46.6464 28.6767 46.5988 28.6196C46.4845 28.4958 46.5321 28.353 46.5702 28.2102Z" fill="#1351D8"/>
<path d="M47.2371 31.0191C47.0086 30.7239 46.8562 30.4193 47.1133 30.0574C47.1609 29.9908 47.1514 29.867 47.1419 29.7718C47.1324 29.6766 47.1133 29.5718 47.0086 29.5337C46.8943 29.4861 46.8372 29.5909 46.761 29.6575C46.6372 29.7622 46.5516 29.8956 46.5135 30.0479C46.3706 30.6192 46.1802 31.181 45.9422 31.7333C45.8089 32.038 45.7803 32.3998 45.5899 32.7045C45.5518 32.7616 45.5327 32.933 45.3994 32.7807C45.7612 31.6952 46.0755 30.5906 46.3611 29.4861C46.4087 29.2005 46.6563 29.0576 46.8467 28.8767C47.0562 28.6768 47.2466 28.4863 47.3323 28.2007C47.3514 28.134 47.3895 28.0674 47.4371 28.0102C47.5037 27.9341 47.5894 27.8769 47.6942 27.9055C47.8275 27.9341 47.7894 28.0578 47.7894 28.1531C47.7894 28.2388 47.8084 28.3245 47.7608 28.4006C47.5799 29.2671 47.4085 30.1431 47.2371 31.0191Z" fill="#1351D8"/>
<path d="M31.7069 45.8636C31.8116 45.9207 31.7735 45.9874 31.6973 46.016C31.1832 46.254 30.6499 46.473 30.0881 46.5968C29.7644 46.673 29.5644 46.9301 29.3074 47.1015C29.2026 47.1681 29.2407 47.3014 29.3264 47.3966C29.4121 47.4918 29.4978 47.5871 29.3645 47.7108C29.0598 47.8061 28.7551 47.8822 28.4314 47.8632C28.26 47.8822 28.041 47.9965 27.9553 47.7965C27.8791 47.6061 28.0981 47.5109 28.2314 47.4252C28.4885 47.2728 28.6884 47.0729 28.8217 46.7968C28.8884 46.6539 29.0027 46.5777 29.1455 46.5397C30.0215 46.3873 30.8594 46.0921 31.7069 45.8636Z" fill="#1351D8"/>
<path d="M47.7508 28.3911C47.7317 28.2768 47.7793 28.1435 47.6175 27.9626C47.4366 28.7148 46.8748 29.0767 46.3416 29.4766C46.4177 29.0576 46.4844 28.6387 46.5606 28.2197C46.5796 28.3149 46.5225 28.4387 46.6272 28.4863C46.7224 28.5339 46.7605 28.4006 46.8176 28.353C47.1319 28.1245 47.3033 27.7341 47.6841 27.5817C47.8365 27.5151 47.7984 27.3247 47.8841 27.2009C47.8841 27.6008 47.8555 28.0007 47.7508 28.3911Z" fill="#1351D8"/>
<path d="M29.1454 46.5397C28.9455 46.8348 28.8884 47.2252 28.5551 47.4442C28.3837 47.549 28.1837 47.6156 28.06 47.7966C28.1837 47.9013 28.3075 47.8442 28.4218 47.8727C28.06 47.9775 27.6791 48.006 27.2982 48.0156C27.3553 47.987 27.441 47.9679 27.4506 47.9299C27.5648 47.3585 28.1457 47.1491 28.4027 46.6825C28.6503 46.5873 28.8979 46.5492 29.1454 46.5397Z" fill="#1351D8"/>
<path d="M24.2227 7.56696C24.0513 7.56696 23.8799 7.68122 23.7085 7.56696C23.9942 7.47174 24.2703 7.38604 24.575 7.41461C24.594 7.43365 24.7464 7.43365 24.6035 7.48126C24.4893 7.52887 24.3369 7.49078 24.2227 7.56696Z" fill="#1351D8"/>
<path d="M38.5625 14.9178C38.4673 14.6036 38.3245 14.2989 38.3435 13.9561C38.5054 14.2608 38.5625 14.5845 38.5625 14.9178Z" fill="#1351D8"/>
<path d="M22.0136 3.45356C20.2235 3.72017 18.4905 4.15817 16.8147 4.84374C14.2914 5.88162 12.0347 7.32893 10.0351 9.20473C7.66421 11.4233 5.89315 14.0418 4.67436 17.0412C4.2554 18.0695 3.92214 19.136 3.63648 20.2119C3.41748 20.231 3.39844 20.0786 3.41748 19.9358C3.44605 19.7073 3.44605 19.4788 3.47461 19.2788C3.04613 19.4502 3.00805 19.8501 2.989 20.2595C2.989 20.3452 2.97948 20.4405 2.91283 20.4976C2.69383 20.6785 2.65574 20.9261 2.59861 21.1832C2.57956 21.2784 2.54148 21.3736 2.49387 21.4498C2.44626 21.5259 2.37008 21.5831 2.27487 21.5545C2.15108 21.5069 2.18917 21.4022 2.22726 21.3069C2.27487 20.5071 2.49387 19.7454 2.70335 18.9741C3.52222 15.9843 4.88384 13.261 6.81677 10.8425C8.74017 8.42394 11.0349 6.42436 13.7486 4.92944C15.7673 3.81539 17.9001 3.00604 20.1568 2.56803C20.3758 2.49186 20.4806 2.54899 20.3663 2.77751C20.2901 2.93938 20.1759 3.08221 19.9569 3.09173C19.5189 3.11078 19.1189 3.22504 18.9475 3.70113C19.0332 3.75826 19.1285 3.72969 19.2142 3.70113C20.0616 3.46308 20.9186 3.29169 21.7755 3.14886C21.9088 3.12982 22.0421 3.1203 22.1754 3.14886C22.2802 3.16791 22.3754 3.21552 22.3659 3.32978C22.3564 3.46308 22.2326 3.39643 22.1564 3.41547C22.1278 3.42499 22.0707 3.40595 22.0136 3.45356Z" fill="#1351D8"/>
<path d="M36.7344 7.11942C36.9344 7.15751 37.1438 7.1956 37.3438 7.23369C37.3533 7.21464 37.3724 7.1956 37.3819 7.16703C37.0867 6.95755 36.7915 6.7576 36.4868 6.54812C36.3345 6.31007 36.5345 6.1482 36.6392 6.00537C36.782 5.82446 36.982 5.68163 37.2295 5.65307C37.858 5.98633 38.4007 6.43386 39.0292 6.86234C39.0292 6.38625 38.8006 6.00537 38.7721 5.58641C38.6673 5.30076 38.8006 5.03415 38.8673 4.76754C38.9244 4.53902 39.1434 4.48189 39.3243 4.62471C39.4957 4.75802 39.6957 4.86276 39.8099 5.06272C39.9718 5.4912 40.0766 5.93872 40.1718 6.38625C40.1146 6.65286 39.9433 6.87186 39.7338 6.99564C39.3053 7.25273 39.0292 7.65265 38.6864 7.99543C38.5531 8.12874 38.4483 8.27156 38.4007 8.462C38.3722 8.57626 38.315 8.66196 38.1817 8.67148C37.439 8.52865 36.7154 8.29061 35.9822 8.10017C35.7061 8.03352 35.6775 7.90973 35.8489 7.67169C36.0774 7.36699 36.2869 7.07182 36.7344 7.11942Z" fill="#1351D8"/>
<path d="M22.0136 3.45351C22.0898 3.41542 22.1564 3.38686 22.3373 3.30116C21.747 3.33925 21.2614 3.39638 20.7948 3.51064C20.5187 3.57729 20.2425 3.63442 19.9664 3.67251C19.7855 3.69155 19.6141 3.72012 19.4522 3.83438C19.1571 4.04386 18.8047 3.89151 18.4905 3.9296C18.3287 3.94864 18.3858 3.77725 18.481 3.70107C18.6905 3.54873 19.0142 3.52016 18.9761 3.12024C18.9666 3.02503 19.1856 3.03455 19.2999 3.00598C19.6331 2.92029 20.0521 3.04407 20.2521 2.63463C20.2997 2.54894 20.2045 2.58702 20.1759 2.56798C21.0614 2.30137 21.9755 2.23472 22.8896 2.1395C23.7942 2.0538 24.6987 2.02524 25.6033 2.0538C25.7366 2.0538 25.8699 2.0538 25.9937 2.12046C25.9461 2.2252 25.8604 2.2728 25.7557 2.23472C25.3177 2.07285 24.8606 2.21567 24.5178 2.15854C24.7464 2.15854 25.0796 2.16806 25.4129 2.15854C25.5748 2.14902 25.6985 2.21567 25.8223 2.28233C26.0032 2.38707 26.0508 2.60607 25.9175 2.72033C25.689 2.92029 25.4795 3.19642 25.1272 3.1869C24.8035 3.17738 24.4702 3.20594 24.2036 3.1869C24.6321 3.13929 25.1177 3.28212 25.6033 3.07264C25.7652 3.00598 25.9651 3.04407 26.1461 3.07264C26.2698 3.09168 26.3936 3.12977 26.3555 3.30116C24.9082 3.31068 23.4609 3.25355 22.0136 3.45351Z" fill="#1351D8"/>
<path d="M2.23683 21.3069C2.25587 21.3831 2.28444 21.4878 2.35109 21.345C2.42727 21.1831 2.44631 20.9927 2.49392 20.8213C2.54153 20.6404 2.57962 20.4976 2.73196 20.3357C2.93192 20.1357 2.88431 19.7644 2.87479 19.4692C2.86527 19.2407 2.80814 19.0312 3.15092 19.2312C3.28423 19.3073 3.31279 19.1836 3.35088 19.0883C3.40801 18.9455 3.38897 18.7741 3.60797 18.6503C3.67462 19.0598 3.65558 19.4406 3.62701 19.8215C3.61749 19.9548 3.56036 20.0881 3.64606 20.2119C3.5318 20.9165 3.41753 21.6307 3.32232 22.3353C3.24614 22.8971 3.19853 23.4684 3.1414 24.0301C3.05571 23.9064 3.12236 23.7731 3.10332 23.6874C3.10332 24.2587 2.89384 24.8585 2.94144 25.4775C2.96049 25.7155 2.68436 25.8488 2.37014 25.8583C2.07496 25.8679 2.03687 25.6965 2.01783 25.4679C1.97022 24.6491 1.97974 23.8397 2.094 23.0304C2.10353 22.9637 2.07496 22.9447 2.02735 22.9256C2.01783 22.3829 2.08448 21.8401 2.23683 21.3069Z" fill="#1351D8"/>
<path d="M38.1816 8.68095C38.1912 8.10965 38.6482 7.82399 38.9434 7.42408C39.21 7.06225 39.7242 6.98607 39.8575 6.5195C39.8956 6.37668 40.0955 6.5195 40.1812 6.40524C40.3621 7.05273 40.5526 7.69069 40.724 8.33817C40.8858 8.97613 40.5621 9.31892 39.9146 9.16657C39.5147 9.07135 39.1148 8.93804 38.7149 8.8333C38.5816 8.60478 38.3626 8.72856 38.1816 8.68095Z" fill="#1351D8"/>
<path d="M2.01785 22.9352C2.10355 22.8114 2.08451 22.659 2.1702 22.5162C2.13212 23.0685 2.10355 23.6303 2.04642 24.1825C2.00833 24.5729 1.99881 24.9633 2.0369 25.3537C2.05594 25.5251 2.07499 25.7155 2.36064 25.687C2.60821 25.6584 2.81769 25.6013 2.78912 25.3156C2.73199 24.6491 3.0843 24.0492 3.11286 23.3922C3.11286 23.6112 3.11286 23.8207 3.11286 24.0397C3.03669 24.7443 3.05573 25.4584 3.11286 26.1631C3.04621 26.7248 3.06525 27.2771 3.20808 27.8199C3.27473 28.096 3.34139 28.3531 3.00812 28.4959C2.94147 28.5245 2.9129 28.6006 2.8653 28.6673C2.64629 28.972 2.57012 28.9815 2.22733 28.8101C2.04642 28.0293 1.97977 27.22 1.94168 26.4201C1.90359 25.4108 1.93216 24.4015 1.93216 23.3827C1.9512 23.2494 1.98929 23.0875 2.01785 22.9352Z" fill="#1351D8"/>
<path d="M26.3556 3.30119C26.1366 3.18692 25.8985 3.23453 25.67 3.23453C24.9749 3.22501 24.2798 3.23453 23.5847 3.14884C24.0418 3.14884 24.4988 3.14884 24.9463 3.14884C25.1082 3.14884 25.2606 3.1774 25.2986 2.93936C25.3272 2.77749 25.4891 2.76797 25.6129 2.72988C25.8699 2.64418 25.8319 2.5204 25.6795 2.35853C25.5462 2.2157 25.3843 2.20618 25.2129 2.20618C24.813 2.20618 24.4131 2.20618 24.0227 2.13C24.6797 2.13 25.3367 2.13 25.9937 2.13C26.9364 2.13953 27.8695 2.22522 28.7836 2.42518C28.8408 2.52992 28.936 2.57753 29.0502 2.57753C29.155 2.57753 29.2502 2.59657 29.2788 2.71083C29.3073 2.83462 29.2692 2.93936 29.155 2.98697C28.955 3.08219 28.7836 3.22501 28.6122 3.3488C28.4884 3.43449 28.3456 3.4821 28.2028 3.43449C27.9552 3.3488 27.7077 3.38688 27.4506 3.37736C27.0887 3.3488 26.7174 3.32975 26.3556 3.30119Z" fill="#1351D8"/>
<path d="M3.56033 29.5528C3.70316 30.3146 3.94121 31.0477 4.16973 31.7809C4.26495 32.0856 4.37921 32.3808 4.45538 32.695C4.54108 33.0188 4.39825 33.3044 4.1126 33.4187C3.82695 33.5329 3.48416 33.3996 3.36038 33.0759C3.03664 32.2665 2.77002 31.4477 2.60815 30.5907C2.6272 30.5526 2.64624 30.5145 2.68433 30.5145C3.04616 30.486 3.12233 30.267 3.12233 29.9432C3.11281 29.6671 3.26516 29.5052 3.56033 29.5528Z" fill="#1351D8"/>
<path d="M37.2295 5.66261C36.9724 5.94826 36.801 6.31009 36.4868 6.55766C35.6679 6.09109 34.8491 5.62452 33.9921 5.21509C33.8683 5.05321 33.8778 4.91039 34.0397 4.77708C34.1159 4.71995 34.1921 4.6533 34.2397 4.5676C34.3635 4.32004 34.5539 4.25338 34.8015 4.32956C35.6775 4.68186 36.4678 5.13891 37.2295 5.66261Z" fill="#1351D8"/>
<path d="M32.6685 4.64374C31.8401 4.39618 31.0117 4.13909 30.1833 3.89152C30.1071 3.69156 30.2499 3.63443 30.3832 3.5773C30.6594 3.46304 30.8593 3.32021 30.6689 2.97743C30.6403 2.9203 30.6498 2.82508 30.7641 2.85365C31.7067 3.0536 32.6018 3.36782 33.4873 3.73917C33.5349 4.22478 33.2112 4.57709 32.6685 4.64374Z" fill="#1351D8"/>
<path d="M30.7737 2.85365C30.8022 3.02504 31.145 2.94887 31.0688 3.15835C30.9927 3.39639 30.8594 3.62492 30.5737 3.70109C30.4309 3.73918 30.2881 3.78679 30.1833 3.89153C29.2883 3.663 28.3647 3.53922 27.4506 3.38687C27.5077 3.36783 27.5743 3.3107 27.622 3.32974C28.1837 3.47257 28.5932 3.14883 29.0121 2.88222C29.0597 2.85365 29.1359 2.83461 29.1359 2.76796C29.1359 2.67274 29.0407 2.68226 28.9741 2.65369C28.8693 2.61561 28.7741 2.57752 28.6789 2.52991C28.6313 2.51087 28.5837 2.47278 28.6789 2.44421C28.717 2.43469 28.755 2.43469 28.7836 2.43469C29.3073 2.52991 29.831 2.62513 30.3547 2.72987C30.4975 2.73939 30.6308 2.80604 30.7737 2.85365Z" fill="#1351D8"/>
<path d="M3.56047 29.5528C3.28434 29.8099 3.21768 30.1146 3.30338 30.4764C3.35099 30.6764 3.28434 30.8382 3.03677 30.6859C2.90346 30.6002 2.71303 30.7621 2.60829 30.5811C2.39881 30.0098 2.32263 29.4195 2.23694 28.8291C2.29407 28.6006 2.29407 28.6006 2.42737 28.7149C2.56068 28.8291 2.66542 28.772 2.72255 28.5244C2.76064 28.3435 2.75112 28.2197 3.02725 28.2388C3.29386 28.2578 3.19864 28.0007 3.16055 27.8579C2.99868 27.3723 3.07486 26.8676 3.07486 26.3725C3.07486 26.3059 3.11294 26.2392 3.14151 26.163C3.12247 27.3152 3.37955 28.4292 3.56047 29.5528Z" fill="#1351D8"/>
<path d="M36.7342 7.11941C36.4676 7.1575 36.4962 7.57646 36.1534 7.55741C36.0677 7.55741 36.2486 7.72881 36.1915 7.86211C36.22 7.99542 35.6297 7.66215 35.9915 8.10016C35.6011 7.99542 35.2107 7.90972 34.8203 7.79546C34.4395 7.6812 34.2871 7.39554 34.3823 7.03371C34.468 6.73854 34.7537 6.57667 35.1155 6.67189C35.6583 6.80519 36.1915 6.96706 36.7342 7.11941Z" fill="#1351D8"/>
<path d="M39.8099 5.07223C39.6004 4.98653 39.3623 4.99605 39.2195 4.76753C39.1528 4.66279 39.0386 4.73896 39.0386 4.82466C39.0576 5.11983 38.791 5.31979 38.772 5.59592C38.6196 5.0627 38.4673 4.51996 38.3245 3.98674C38.2388 3.68204 38.3149 3.41543 38.6006 3.2726C38.8958 3.12026 39.1624 3.17739 39.3623 3.46304C39.4385 3.72965 39.3242 4.05339 39.5908 4.26287C39.7051 4.51996 39.7718 4.78657 39.8099 5.07223Z" fill="#1351D8"/>
<path d="M32.6685 4.64374C33.0112 4.40569 33.2874 4.10099 33.4969 3.73917C33.9539 3.89152 34.4109 4.07243 34.8204 4.32952C34.449 4.52948 34.2015 4.8437 34.011 5.21505C33.554 5.02461 33.116 4.83417 32.6685 4.64374Z" fill="#1351D8"/>
<path d="M39.6002 4.25332C39.0765 4.12002 39.2955 3.76771 39.3717 3.45349C39.524 3.70106 39.5526 3.97719 39.6002 4.25332Z" fill="#1351D8"/>
<path d="M38.1912 8.681C38.3816 8.66196 38.6292 8.47152 38.7053 8.82383C38.5244 8.80479 38.3435 8.7667 38.1912 8.681Z" fill="#1351D8"/>
<path d="M23.9276 8.74765C23.661 8.9 23.3849 9.05235 23.1183 9.19518C23.3373 8.95713 23.5372 8.681 23.9276 8.74765Z" fill="#1351D8"/>
<path d="M20.3283 3.30115C20.3283 3.38685 20.2712 3.41541 20.2141 3.41541C20.1379 3.41541 20.0617 3.39637 20.0522 3.31067C20.0427 3.25354 20.1093 3.24402 20.1474 3.2345C20.2141 3.2345 20.2902 3.24402 20.3283 3.30115Z" fill="#1351D8"/>
<path d="M34.3634 22.2686C34.8585 23.7349 34.9252 25.2394 34.6681 26.7628C33.8492 31.5618 29.6596 35.0468 24.794 34.9706C23.6895 34.9516 22.604 34.7802 21.5756 34.3422C21.4995 34.266 21.4042 34.2089 21.3376 34.1327C21.2233 33.9994 21.2138 33.8375 21.3471 33.7423C21.6137 33.5614 21.8232 33.2853 22.185 33.2758C22.2231 33.2853 22.2517 33.2948 22.2898 33.3138C22.4421 33.6471 22.5373 33.8185 23.0039 33.4281C23.7371 33.4948 24.4607 33.5805 25.1939 33.5614C26.8888 33.5328 28.4218 33.0187 29.793 32.0474C31.9258 30.5335 33.1256 28.4577 33.4112 25.8488C33.4874 25.1917 33.4303 24.5538 33.3636 23.9158C33.3541 23.773 33.316 23.6302 33.3636 23.4778C33.4017 23.4207 33.4303 23.335 33.4969 23.316C33.9825 23.2207 34.0016 22.8113 34.0873 22.4495C34.1158 22.2876 34.0968 22.0496 34.3634 22.2686Z" fill="#1351D8"/>
<path d="M22.2421 33.3615C21.8898 33.3996 21.7089 33.7233 21.4518 33.8947C21.2899 33.9995 21.547 34.1804 21.5756 34.3422C20.2521 33.9042 19.1094 33.1806 18.1287 32.1903C18.0335 32.057 18.0335 31.8856 18.0049 31.7428C17.9192 31.3524 18.1763 31.1143 18.5667 31.2096C18.6714 31.2381 18.7571 31.2191 18.8523 31.2C19.0047 31.162 19.0999 31.2762 19.2047 31.3619C20.0426 32.0665 20.9376 32.6759 21.9755 33.0473C22.0993 33.1044 22.2802 33.1425 22.2421 33.3615Z" fill="#1351D8"/>
<path d="M16.053 20.8689C16.6338 19.631 17.4241 18.5551 18.462 17.66C18.8619 17.3172 19.2618 16.9745 19.7379 16.7555C19.9093 16.8031 19.995 16.9649 20.1283 17.0697C20.2426 17.1649 20.2616 17.3268 20.1664 17.4315C20.0045 17.6124 19.9569 17.8695 19.7474 17.9933C19.5856 18.0885 19.6617 18.2218 19.6617 18.3456C19.6522 18.4694 19.576 18.5551 19.4903 18.6217C19.0714 18.936 18.7476 19.3644 18.3287 19.6691C18.1478 19.6406 18.043 19.7453 17.8907 19.8405C17.5955 20.031 17.4241 20.3547 17.1099 20.488C16.9004 20.5737 16.8052 20.6594 16.8147 20.8784C16.8147 20.9546 16.7862 21.0212 16.7766 21.0974C16.7385 21.2593 16.6814 21.4116 16.4815 21.4116C16.3005 21.4116 16.1863 21.2974 16.1482 21.126C16.1101 21.0308 16.0815 20.9546 16.053 20.8689Z" fill="#1351D8"/>
<path d="M19.5094 18.298C19.4713 17.9076 19.7951 17.6791 19.957 17.3839C19.9855 17.3268 20.0903 17.2887 20.0427 17.2125C19.9855 17.1173 19.8998 17.1554 19.8237 17.1935C19.757 17.2316 19.6999 17.3458 19.6142 17.2411C19.5475 17.1554 19.6142 17.0792 19.6713 17.0221C19.738 16.9459 19.776 16.8602 19.738 16.7555C20.852 16.0033 22.0898 15.5748 23.4134 15.3748C23.4991 15.4891 23.4229 15.5843 23.3562 15.67C23.1468 15.9461 23.1468 16.346 22.8706 16.5936C22.8421 16.6222 22.8611 16.6888 22.8516 16.7364C22.804 16.8888 22.6707 16.9269 22.5469 16.965C21.6614 17.2411 20.833 17.641 20.0617 18.1647C19.8903 18.2599 19.7284 18.4123 19.5094 18.298Z" fill="#1351D8"/>
<path d="M16.0529 20.8689C16.1386 20.8975 16.2052 20.9355 16.2528 21.0117C16.31 21.1069 16.3481 21.2879 16.5004 21.2212C16.6147 21.1736 16.6147 21.0022 16.5956 20.8879C16.5385 20.5071 16.6147 20.2785 17.0717 20.2785C17.2336 20.2785 17.3383 20.0881 17.1669 19.9262C17.0717 19.8405 17.0051 19.7739 17.1098 19.6596C17.2336 19.5263 17.3288 19.6311 17.4145 19.7168C17.5859 19.8882 17.7287 19.9358 17.862 19.6596C17.9382 19.4978 18.0906 19.4406 18.2619 19.5263C18.3 19.8405 18.1001 20.0595 17.9477 20.2785C17.2717 21.2307 16.8718 22.2972 16.5956 23.4303C16.5671 23.554 16.5385 23.6683 16.4052 23.7159C16.3576 23.7254 16.31 23.7254 16.2624 23.7064C15.7291 23.516 15.5768 23.6112 15.434 24.1825C15.3864 24.3539 15.3673 24.5348 15.1198 24.4586C15.1674 23.2113 15.4816 22.002 16.0529 20.8689Z" fill="#1351D8"/>
<path d="M34.3633 22.2686C34.3157 22.2591 34.2396 22.2781 34.2491 22.3257C34.3729 22.678 34.0967 22.9161 34.0301 23.2113C33.9539 23.516 33.773 23.6302 33.4778 23.4588C33.3159 23.4874 33.2683 23.3636 33.2303 23.2493C32.9827 22.3257 32.6304 21.4497 32.1829 20.6118C32.1638 20.5071 32.1924 20.3928 32.1638 20.2881C32.0781 19.9072 32.1829 19.6691 32.478 19.5263C32.7637 19.393 32.9256 19.6025 33.116 19.7644C33.2017 19.8405 33.2683 19.9167 33.3445 20.0024C33.8301 20.688 34.1539 21.4592 34.3633 22.2686Z" fill="#1351D8"/>
<path d="M33.3541 19.9929C33.2113 19.9072 33.0589 19.831 32.9161 19.7453C32.7352 19.6406 32.5924 19.6501 32.4305 19.8025C32.2877 19.9358 32.2305 20.0691 32.3257 20.2405C32.3829 20.3547 32.3829 20.469 32.3734 20.5928C32.2115 20.6594 32.1163 20.5642 32.0401 20.4499C31.6592 19.8596 31.1831 19.3549 30.6785 18.8598C30.5928 18.7741 30.5166 18.6789 30.5166 18.5361C30.5166 18.4884 30.5452 18.4313 30.5261 18.3932C30.4404 18.1647 30.4309 17.9552 30.6499 17.8029C30.888 17.641 31.1355 17.4982 31.4212 17.7077C32.202 18.3647 32.859 19.1074 33.3541 19.9929Z" fill="#1351D8"/>
<path d="M25.5557 15.2796C26.0794 15.2701 26.6031 15.3367 27.0982 15.4986C27.2411 15.6605 27.4601 15.6795 27.6219 15.8128C27.7362 15.908 27.8314 16.0413 27.7552 16.1461C27.5934 16.3651 27.6029 16.6507 27.441 16.8507C27.2791 16.9459 27.1078 16.8888 26.9459 16.8507C26.5555 16.7459 26.1556 16.6983 25.7652 16.6412C25.2986 16.6507 24.8511 16.4889 24.3845 16.4889C24.2988 16.4889 24.2131 16.4603 24.175 16.3651C24.137 16.2603 24.175 16.1651 24.2607 16.108C24.4797 15.9652 24.6226 15.7842 24.6511 15.5176C24.6607 15.4319 24.7273 15.3367 24.813 15.3367C25.0606 15.3558 25.2986 15.1748 25.5557 15.2796Z" fill="#1351D8"/>
<path d="M18.8619 31.3143C18.4334 31.3333 18.0335 31.3809 18.1763 31.9903C18.1954 32.0475 18.1382 32.1237 18.1192 32.1903C17.3765 31.5523 16.8147 30.7716 16.3577 29.9146C16.4148 29.6004 16.5957 29.3528 16.8147 29.1433C16.9385 29.0195 17.0813 29.0576 17.2051 29.1719C17.3098 29.2766 17.4241 29.3623 17.5669 29.4099C17.9954 29.9336 18.3668 30.5145 18.8333 31.0191C18.9 31.1048 18.9381 31.2 18.8619 31.3143Z" fill="#1351D8"/>
<path d="M15.1103 24.4776C15.3484 24.2586 15.2532 23.9159 15.4436 23.6493C15.8435 23.1256 16.0149 23.1065 16.3577 23.6778C16.4815 23.7445 16.5196 23.8587 16.51 23.9825C16.4243 24.611 16.5196 25.2394 16.4243 25.8678C16.3291 26.0583 16.1863 26.0773 16.0339 25.9631C15.7864 25.7631 15.7197 25.9345 15.6721 26.1344C15.6436 26.2392 15.6626 26.3534 15.6245 26.4582C15.5579 26.6391 15.4912 26.8105 15.2532 26.7724C15.0246 26.0107 15.1008 25.2394 15.1103 24.4776Z" fill="#1351D8"/>
<path d="M31.4306 17.7077C31.3259 17.7267 31.2116 17.7362 31.1069 17.7648C30.6689 17.9171 30.6308 18.0028 30.6879 18.5837C30.6022 18.6598 30.507 18.6503 30.4213 18.5837C29.9547 18.2504 29.4787 17.9267 29.0026 17.6124C28.9454 17.5744 28.8978 17.5077 28.8788 17.4315C28.8883 17.3268 28.8502 17.2125 28.8502 17.1078C28.8693 16.6127 29.0597 16.4508 29.5548 16.4984C29.612 16.5079 29.6786 16.5079 29.7357 16.4984C30.3642 16.8412 30.945 17.2125 31.4306 17.7077Z" fill="#1351D8"/>
<path d="M25.5558 15.2796C25.3463 15.3367 25.1368 15.3843 24.9274 15.4415C24.8798 15.451 24.8417 15.47 24.8417 15.5367C24.8512 15.8985 24.6988 16.1175 24.2799 16.327C24.7941 16.4793 25.2987 16.2984 25.7653 16.4508C25.6986 16.6222 25.5463 16.6317 25.3939 16.6317C24.6131 16.6317 23.8324 16.6507 23.0611 16.8031C22.9278 16.8316 22.823 16.8031 22.7373 16.6888C22.6897 16.6317 22.5374 16.5555 22.6231 16.5079C22.9849 16.2794 22.9278 15.8128 23.2039 15.5367C23.261 15.4795 23.3372 15.4319 23.3944 15.3748C24.118 15.2701 24.8321 15.1368 25.5558 15.2796Z" fill="#1351D8"/>
<path d="M29.7453 16.5175C29.7072 16.546 29.6691 16.6032 29.631 16.6032C29.0788 16.6032 29.0216 16.9935 28.9931 17.4125C28.9074 17.5172 28.8026 17.5077 28.6979 17.4601C28.3456 17.3078 27.9933 17.184 27.641 17.0412C27.5267 16.9935 27.4124 16.9364 27.4505 16.7745C27.2506 16.6508 27.2887 16.5175 27.3934 16.3461C27.4601 16.2413 27.6791 16.1652 27.5743 16.0318C27.4696 15.8985 27.3839 15.7176 27.203 15.651C27.1458 15.6319 26.9459 15.67 27.0982 15.4986C27.7457 15.67 28.4027 15.8128 29.0121 16.108C29.2597 16.2413 29.5263 16.327 29.7453 16.5175Z" fill="#1351D8"/>
<path d="M17.4717 29.5432C17.2813 29.6099 17.2622 29.448 17.186 29.3433C17.0527 29.1624 16.8242 29.229 16.8337 29.3719C16.8718 29.7623 16.5766 29.7908 16.3576 29.9146C16.0529 29.4671 15.853 28.9719 15.6911 28.4482C15.6245 28.2197 15.6721 27.9817 15.6245 27.7532C15.5864 27.5818 15.6911 27.477 15.8339 27.4104C16.0815 27.3056 16.6243 27.477 16.8147 27.7055C17.0432 28.1912 17.2336 28.6958 17.4717 29.1719C17.5383 29.3052 17.6145 29.429 17.4717 29.5432Z" fill="#1351D8"/>
<path d="M16.6528 27.7817C16.5766 27.7056 16.5099 27.5151 16.3766 27.6294C16.2052 27.7817 16.1386 27.8103 15.9767 27.6008C15.8624 27.458 15.7768 27.677 15.7863 27.7817C15.8148 28.0198 15.7387 28.2293 15.6911 28.4578C15.4435 27.9246 15.3102 27.3533 15.2435 26.7724C15.3864 26.582 15.4816 26.382 15.4816 26.144C15.4816 26.0583 15.4911 25.9631 15.5292 25.8964C15.6149 25.7631 15.6149 25.5251 15.8053 25.5155C16.0053 25.506 16.11 25.6774 16.1671 25.8583C16.1767 25.8964 16.2338 25.925 16.2719 25.9535C16.4338 25.9726 16.4814 26.0964 16.5099 26.2297C16.5861 26.6391 16.6528 27.0486 16.767 27.439C16.8146 27.5723 16.8051 27.7056 16.6528 27.7817Z" fill="#1351D8"/>
<path d="M22.2421 33.3615C22.4897 33.4377 22.7373 33.5043 22.9848 33.5805C22.9467 33.609 22.9182 33.6567 22.8801 33.6757C22.7277 33.7519 22.6801 34.0375 22.4706 33.9614C22.2326 33.8566 22.2421 33.5995 22.2421 33.3615Z" fill="#1351D8"/>
<path d="M22.4707 27.4104C23.0039 27.8579 23.0135 27.8579 23.5276 27.3437C25.5558 25.3156 27.5839 23.297 29.6025 21.2688C29.6787 21.1926 29.7549 21.1069 29.8406 21.0403C30.0977 20.8403 30.3548 20.8308 30.6119 21.0498C30.8404 21.2498 30.8785 21.5926 30.6976 21.8496C30.5928 21.9829 30.469 22.1067 30.3452 22.221C28.1076 24.4586 25.8795 26.6867 23.6419 28.9243C23.0992 29.4671 22.8421 29.4671 22.3088 28.9053C22.2612 28.8482 22.2136 28.791 22.166 28.7339C22.1089 28.6577 22.0422 28.5911 21.9756 28.5149C21.5947 28.1245 21.5757 27.7912 21.928 27.3628C22.1184 27.1247 22.2898 27.3723 22.4707 27.4104Z" fill="#1351D8"/>
<path d="M22.4707 27.4104C22.1946 27.3913 21.8708 27.3247 22.1279 27.7912C22.166 27.8579 22.1279 27.896 22.0517 27.915C21.8137 27.9722 21.7566 28.1626 21.9184 28.3816C22.0041 28.4959 22.1279 28.5815 22.166 28.7339C21.7661 28.4006 21.4042 28.0198 21.0615 27.6294C20.7853 27.2866 20.4425 27.0105 20.1664 26.6677C19.995 26.4582 19.9665 26.2678 20.0902 26.0392C20.2235 25.7821 20.4425 25.7631 20.6806 25.8012C20.7663 25.8107 20.852 25.8297 20.9282 25.8678C21.4614 26.363 21.9946 26.8676 22.4707 27.4104Z" fill="#1351D8"/>
<path d="M20.9282 25.8678C20.871 25.8869 20.8139 25.8964 20.7473 25.9155C20.0807 26.0583 19.9855 26.3915 20.4426 26.9152C20.6425 27.1533 20.9377 27.3247 21.0615 27.6294C20.433 27.0676 19.8427 26.4677 19.2714 25.8393C19.0048 25.5441 19.0238 25.2108 19.2714 24.9918C19.5094 24.7824 19.8617 24.8014 20.1283 25.0585C20.4045 25.3156 20.6711 25.5917 20.9282 25.8678Z" fill="#1351D8"/>
</svg>
