<svg width="38" height="34" viewBox="0 0 38 34" fill="none" xmlns="http://www.w3.org/2000/svg">
<path d="M7.58176 0.196494C5.726 0.703929 4.30518 2.42921 3.73975 4.82141C3.56577 5.58981 3.52228 7.43108 3.52228 16.13V26.5397H2.28993C1.08659 26.5397 1.05759 26.5397 0.970601 26.9311C0.912608 27.1341 0.941605 27.685 1.02859 28.149C1.52153 30.8021 3.71075 32.8609 6.42191 33.2088C7.85723 33.3828 31.0833 33.3828 32.5186 33.2088C35.2298 32.8609 37.419 30.8021 37.9119 28.149C37.9989 27.685 38.0279 27.1341 37.9699 26.9311C37.8829 26.5397 37.8539 26.5397 36.6506 26.5397H35.4182V16.13C35.4182 4.8649 35.4037 4.80691 34.6063 3.12512C34.0989 2.02326 33.0985 0.964896 32.1127 0.486457L31.2863 0.0805085L19.7602 0.0515122C10.9598 0.037014 8.0747 0.0660103 7.58176 0.196494ZM31.2428 1.34185C31.9967 1.55932 32.9391 2.41471 33.432 3.2991C34.2584 4.83591 34.2584 4.79241 34.2584 16.13V26.5397L28.2851 26.5687L22.2974 26.6121L22.2539 27.6705L22.2104 28.7144H19.4703H16.7156V27.859C16.7156 26.4092 17.3245 26.5397 10.6119 26.5397H4.68213V16.13C4.68213 4.79241 4.68213 4.83591 5.50853 3.2991C5.97247 2.47271 6.92935 1.57382 7.61076 1.35635C8.32117 1.12438 30.4889 1.10988 31.2428 1.34185ZM15.5558 28.4824C15.5558 29.9322 15.4108 29.8742 19.4703 29.8742C23.5297 29.8742 23.3848 29.9322 23.3848 28.4824V27.5545H30.1264C37.7089 27.5545 37.071 27.4385 36.5781 28.7289C35.9837 30.3237 34.8238 31.4255 33.229 31.9185C32.3881 32.1794 31.6632 32.1939 19.4848 32.1939C5.32005 32.1939 5.81299 32.2229 4.36317 31.2951C3.49328 30.7586 2.85536 29.9467 2.42042 28.8884C1.81149 27.4095 1.14458 27.5545 8.81411 27.5545H15.5558V28.4824Z" fill="#1351D8"/>
<path d="M8.23422 6.83663C8.17623 6.90912 8.17623 7.14109 8.21972 7.34406L8.30671 7.69202H19.4558C29.6625 7.69202 30.6049 7.67752 30.6919 7.46005C30.7499 7.32956 30.7499 7.09759 30.7064 6.95261C30.6194 6.69164 30.1989 6.67715 19.4703 6.67715C11.8008 6.67715 8.29221 6.72064 8.23422 6.83663Z" fill="#1351D8"/>
<path d="M8.33545 9.89582C8.10348 10.1278 8.11798 10.5192 8.36445 10.7222C8.49493 10.8382 11.5395 10.8672 19.5425 10.8527C29.8217 10.8092 30.5466 10.7947 30.6916 10.5482C30.8076 10.3743 30.8076 10.2293 30.6916 10.0408C30.5466 9.80883 29.8217 9.79433 19.5135 9.75083C11.0756 9.72184 8.46594 9.76533 8.33545 9.89582Z" fill="#1351D8"/>
<path d="M18.1655 13.6653C17.861 14.3757 16.0053 21.6103 16.0778 21.8133C16.1212 21.9293 16.2517 22.0597 16.3677 22.1032C16.9331 22.3207 17.0781 21.9727 18.151 17.9423C18.7309 15.753 19.1804 13.8393 19.1514 13.6943C19.0789 13.2594 18.354 13.2449 18.1655 13.6653Z" fill="#1351D8"/>
<path d="M9.01696 14.8106C8.91548 15.0281 8.87198 15.8255 8.91548 17.2028C8.95897 19.0151 9.00247 19.3196 9.26343 19.682C10.1333 20.8709 11.9891 20.8709 12.859 19.682C13.1344 19.3196 13.1634 19.0296 13.2069 17.1449C13.2649 14.7382 13.1634 14.3902 12.4675 14.5642L12.0761 14.6512V16.7534C12.0761 18.6672 12.0471 18.8846 11.7861 19.1456C11.4382 19.4936 10.8147 19.5226 10.3653 19.2036C10.0608 19.0006 10.0463 18.8846 10.0463 16.9129C10.0463 15.5066 9.98834 14.7962 9.87235 14.6802C9.59689 14.4047 9.20544 14.4772 9.01696 14.8106Z" fill="#1351D8"/>
<path d="M14.425 14.6802C14.309 14.7961 14.251 15.6515 14.251 17.5798C14.251 20.146 14.2655 20.3054 14.5409 20.4504C14.7439 20.5664 14.9179 20.5664 15.1209 20.4504C15.3963 20.3054 15.4108 20.146 15.4108 17.5798C15.4108 14.7961 15.3528 14.5062 14.8309 14.5062C14.7004 14.5062 14.5264 14.5787 14.425 14.6802Z" fill="#1351D8"/>
<path d="M20.1515 15.0281C20.0935 15.0861 20.05 16.1444 20.05 17.3768C20.05 19.827 20.1515 20.1894 20.9199 20.6534C21.4999 20.9868 22.7612 20.9578 23.3556 20.5954C24.1095 20.1314 24.2545 19.5805 24.2545 17.3043C24.2545 16.2024 24.1965 15.2166 24.124 15.1151C24.0515 14.9991 23.8196 14.9411 23.5876 14.9701L23.1672 15.0136L23.0947 17.2173C23.0512 18.4351 22.9497 19.4935 22.8772 19.566C22.5437 19.8995 21.8623 19.8995 21.4709 19.5805C21.0794 19.276 21.0794 19.2615 21.0359 17.1448L20.9924 15.0136L20.63 14.9701C20.427 14.9411 20.2095 14.9701 20.1515 15.0281Z" fill="#1351D8"/>
<path d="M25.4145 15.1586C25.1825 15.4341 25.255 15.5935 26.1249 16.7969C26.5309 17.3623 26.8643 17.8553 26.8643 17.9278C26.8643 17.9857 26.5019 18.5077 26.0524 19.1021C25.168 20.291 25.0666 20.7839 25.719 20.8564C26.0524 20.8999 26.2119 20.7549 26.8063 19.9575C27.1833 19.4211 27.5457 19.0006 27.6037 19.0006C27.6617 19.0006 28.0097 19.4211 28.3866 19.943C28.8941 20.6534 29.1405 20.8854 29.4015 20.8854C29.6625 20.8854 29.7785 20.7839 29.851 20.5229C29.9234 20.2475 29.764 19.9285 29.126 19.0586L28.3286 17.9422L28.8216 17.2753C29.8799 15.8835 30.0539 15.5646 29.9669 15.3326C29.8654 15.0571 29.4015 14.8831 29.184 15.0136C29.097 15.0716 28.7201 15.5211 28.3286 16.0285L27.6327 16.9564L26.9223 15.956C26.1829 14.9121 25.7915 14.7092 25.4145 15.1586Z" fill="#1351D8"/>
</svg>
