<svg version="1.2" xmlns="http://www.w3.org/2000/svg" viewBox="0 0 512 512" width="512" height="512">
	<defs>
		<radialGradient id="g1" cx="0" cy="0" r="1" gradientUnits="userSpaceOnUse" gradientTransform="matrix(193.306,0,0,193.306,269.081,254.043)">
			<stop offset=".732" stop-color="#000d26"/>
			<stop offset=".916" stop-color="#8ab6f9"/>
			<stop offset="1" stop-color="#cadcfc"/>
		</radialGradient>
		<radialGradient id="g2" cx="0" cy="0" r="1" gradientUnits="userSpaceOnUse" gradientTransform="matrix(193.305,0,0,193.305,269.081,254.042)">
			<stop offset=".732" stop-color="#000d26"/>
			<stop offset=".916" stop-color="#8ab6f9"/>
			<stop offset="1" stop-color="#cadcfc"/>
		</radialGradient>
		<radialGradient id="g3" cx="0" cy="0" r="1" gradientUnits="userSpaceOnUse" gradientTransform="matrix(193.306,0,0,193.306,269.083,254.045)">
			<stop offset=".732" stop-color="#000d26"/>
			<stop offset=".916" stop-color="#8ab6f9"/>
			<stop offset="1" stop-color="#cadcfc"/>
		</radialGradient>
		<radialGradient id="g4" cx="0" cy="0" r="1" gradientUnits="userSpaceOnUse" gradientTransform="matrix(193.307,0,0,193.307,269.081,254.043)">
			<stop offset=".732" stop-color="#000d26"/>
			<stop offset=".916" stop-color="#8ab6f9"/>
			<stop offset="1" stop-color="#cadcfc"/>
		</radialGradient>
		<radialGradient id="g5" cx="0" cy="0" r="1" gradientUnits="userSpaceOnUse" gradientTransform="matrix(193.307,0,0,193.307,269.082,254.043)">
			<stop offset=".732" stop-color="#000d26"/>
			<stop offset=".916" stop-color="#8ab6f9"/>
			<stop offset="1" stop-color="#cadcfc"/>
		</radialGradient>
		<radialGradient id="g6" cx="0" cy="0" r="1" gradientUnits="userSpaceOnUse" gradientTransform="matrix(193.307,0,0,193.307,269.083,254.043)">
			<stop offset=".732" stop-color="#000d26"/>
			<stop offset=".916" stop-color="#8ab6f9"/>
			<stop offset="1" stop-color="#cadcfc"/>
		</radialGradient>
		<radialGradient id="g7" cx="0" cy="0" r="1" gradientUnits="userSpaceOnUse" gradientTransform="matrix(193.305,0,0,193.305,269.084,254.043)">
			<stop offset=".732" stop-color="#000d26"/>
			<stop offset=".916" stop-color="#8ab6f9"/>
			<stop offset="1" stop-color="#cadcfc"/>
		</radialGradient>
		<radialGradient id="g8" cx="0" cy="0" r="1" gradientUnits="userSpaceOnUse" gradientTransform="matrix(193.307,0,0,193.307,269.083,254.041)">
			<stop offset=".732" stop-color="#000d26"/>
			<stop offset=".916" stop-color="#8ab6f9"/>
			<stop offset="1" stop-color="#cadcfc"/>
		</radialGradient>
		<radialGradient id="g9" cx="0" cy="0" r="1" gradientUnits="userSpaceOnUse" gradientTransform="matrix(193.305,0,0,193.305,269.084,254.043)">
			<stop offset=".732" stop-color="#000d26"/>
			<stop offset=".916" stop-color="#8ab6f9"/>
			<stop offset="1" stop-color="#cadcfc"/>
		</radialGradient>
		<radialGradient id="g10" cx="0" cy="0" r="1" gradientUnits="userSpaceOnUse" gradientTransform="matrix(193.305,0,0,193.305,269.084,254.042)">
			<stop offset=".732" stop-color="#000d26"/>
			<stop offset=".916" stop-color="#8ab6f9"/>
			<stop offset="1" stop-color="#cadcfc"/>
		</radialGradient>
		<radialGradient id="g11" cx="0" cy="0" r="1" gradientUnits="userSpaceOnUse" gradientTransform="matrix(187.606,0,0,187.606,267.063,259.182)">
			<stop offset=".603" stop-color="#000d26"/>
			<stop offset=".868" stop-color="#8ab6f9"/>
			<stop offset="1" stop-color="#cadcfc"/>
		</radialGradient>
		<radialGradient id="g12" cx="0" cy="0" r="1" gradientUnits="userSpaceOnUse" gradientTransform="matrix(187.604,0,0,187.604,267.064,259.182)">
			<stop offset=".603" stop-color="#000d26"/>
			<stop offset=".868" stop-color="#8ab6f9"/>
			<stop offset="1" stop-color="#cadcfc"/>
		</radialGradient>
		<radialGradient id="g13" cx="0" cy="0" r="1" gradientUnits="userSpaceOnUse" gradientTransform="matrix(187.605,0,0,187.605,267.064,259.182)">
			<stop offset=".603" stop-color="#000d26"/>
			<stop offset=".868" stop-color="#8ab6f9"/>
			<stop offset="1" stop-color="#cadcfc"/>
		</radialGradient>
		<radialGradient id="g14" cx="0" cy="0" r="1" gradientUnits="userSpaceOnUse" gradientTransform="matrix(187.6,0,0,187.6,267.064,259.183)">
			<stop offset=".603" stop-color="#000d26"/>
			<stop offset=".868" stop-color="#8ab6f9"/>
			<stop offset="1" stop-color="#cadcfc"/>
		</radialGradient>
		<radialGradient id="g15" cx="0" cy="0" r="1" gradientUnits="userSpaceOnUse" gradientTransform="matrix(187.602,0,0,187.602,267.064,259.183)">
			<stop offset=".603" stop-color="#000d26"/>
			<stop offset=".868" stop-color="#8ab6f9"/>
			<stop offset="1" stop-color="#cadcfc"/>
		</radialGradient>
		<radialGradient id="g16" cx="0" cy="0" r="1" gradientUnits="userSpaceOnUse" gradientTransform="matrix(187.606,0,0,187.606,267.063,259.182)">
			<stop offset=".603" stop-color="#000d26"/>
			<stop offset=".868" stop-color="#8ab6f9"/>
			<stop offset="1" stop-color="#cadcfc"/>
		</radialGradient>
		<radialGradient id="g17" cx="0" cy="0" r="1" gradientUnits="userSpaceOnUse" gradientTransform="matrix(187.603,0,0,187.603,267.064,259.183)">
			<stop offset=".603" stop-color="#000d26"/>
			<stop offset=".868" stop-color="#8ab6f9"/>
			<stop offset="1" stop-color="#cadcfc"/>
		</radialGradient>
		<radialGradient id="g18" cx="0" cy="0" r="1" gradientUnits="userSpaceOnUse" gradientTransform="matrix(187.604,0,0,187.604,267.064,259.183)">
			<stop offset=".603" stop-color="#000d26"/>
			<stop offset=".868" stop-color="#8ab6f9"/>
			<stop offset="1" stop-color="#cadcfc"/>
		</radialGradient>
		<radialGradient id="g19" cx="0" cy="0" r="1" gradientUnits="userSpaceOnUse" gradientTransform="matrix(187.605,0,0,187.605,267.064,259.182)">
			<stop offset=".603" stop-color="#000d26"/>
			<stop offset=".868" stop-color="#8ab6f9"/>
			<stop offset="1" stop-color="#cadcfc"/>
		</radialGradient>
		<radialGradient id="g20" cx="0" cy="0" r="1" gradientUnits="userSpaceOnUse" gradientTransform="matrix(187.605,0,0,187.605,267.064,259.182)">
			<stop offset=".603" stop-color="#000d26"/>
			<stop offset=".868" stop-color="#8ab6f9"/>
			<stop offset="1" stop-color="#cadcfc"/>
		</radialGradient>
		<radialGradient id="g21" cx="0" cy="0" r="1" gradientUnits="userSpaceOnUse" gradientTransform="matrix(50.084,93.219,-93.219,50.084,253.039,258.325)">
			<stop offset=".689" stop-color="#000d26"/>
			<stop offset=".916" stop-color="#8ab6f9"/>
			<stop offset="1" stop-color="#cadcfc"/>
		</radialGradient>
		<radialGradient id="g22" cx="0" cy="0" r="1" gradientUnits="userSpaceOnUse" gradientTransform="matrix(50.085,93.221,-93.221,50.085,253.038,258.325)">
			<stop offset=".689" stop-color="#000d26"/>
			<stop offset=".916" stop-color="#8ab6f9"/>
			<stop offset="1" stop-color="#cadcfc"/>
		</radialGradient>
		<radialGradient id="g23" cx="0" cy="0" r="1" gradientUnits="userSpaceOnUse" gradientTransform="matrix(50.086,93.222,-93.222,50.086,253.038,258.325)">
			<stop offset=".689" stop-color="#000d26"/>
			<stop offset=".916" stop-color="#8ab6f9"/>
			<stop offset="1" stop-color="#cadcfc"/>
		</radialGradient>
		<radialGradient id="g24" cx="0" cy="0" r="1" gradientUnits="userSpaceOnUse" gradientTransform="matrix(50.084,93.219,-93.219,50.084,253.038,258.326)">
			<stop offset=".689" stop-color="#000d26"/>
			<stop offset=".916" stop-color="#8ab6f9"/>
			<stop offset="1" stop-color="#cadcfc"/>
		</radialGradient>
		<radialGradient id="g25" cx="0" cy="0" r="1" gradientUnits="userSpaceOnUse" gradientTransform="matrix(50.085,93.221,-93.221,50.085,253.038,258.326)">
			<stop offset=".689" stop-color="#000d26"/>
			<stop offset=".916" stop-color="#8ab6f9"/>
			<stop offset="1" stop-color="#cadcfc"/>
		</radialGradient>
		<radialGradient id="g26" cx="0" cy="0" r="1" gradientUnits="userSpaceOnUse" gradientTransform="matrix(50.086,93.223,-93.223,50.086,253.039,258.325)">
			<stop offset=".689" stop-color="#000d26"/>
			<stop offset=".916" stop-color="#8ab6f9"/>
			<stop offset="1" stop-color="#cadcfc"/>
		</radialGradient>
		<radialGradient id="g27" cx="0" cy="0" r="1" gradientUnits="userSpaceOnUse" gradientTransform="matrix(50.085,93.222,-93.222,50.085,253.038,258.326)">
			<stop offset=".689" stop-color="#000d26"/>
			<stop offset=".916" stop-color="#8ab6f9"/>
			<stop offset="1" stop-color="#cadcfc"/>
		</radialGradient>
		<radialGradient id="g28" cx="0" cy="0" r="1" gradientUnits="userSpaceOnUse" gradientTransform="matrix(50.086,93.222,-93.222,50.086,253.038,258.326)">
			<stop offset=".689" stop-color="#000d26"/>
			<stop offset=".916" stop-color="#8ab6f9"/>
			<stop offset="1" stop-color="#cadcfc"/>
		</radialGradient>
		<radialGradient id="g29" cx="0" cy="0" r="1" gradientUnits="userSpaceOnUse" gradientTransform="matrix(50.086,93.223,-93.223,50.086,253.038,258.325)">
			<stop offset=".689" stop-color="#000d26"/>
			<stop offset=".916" stop-color="#8ab6f9"/>
			<stop offset="1" stop-color="#cadcfc"/>
		</radialGradient>
		<radialGradient id="g30" cx="0" cy="0" r="1" gradientUnits="userSpaceOnUse" gradientTransform="matrix(50.086,93.223,-93.223,50.086,253.038,258.325)">
			<stop offset=".689" stop-color="#000d26"/>
			<stop offset=".916" stop-color="#8ab6f9"/>
			<stop offset="1" stop-color="#cadcfc"/>
		</radialGradient>
		<radialGradient id="g31" cx="0" cy="0" r="1" gradientUnits="userSpaceOnUse" gradientTransform="matrix(9.058,49.186,-49.186,9.058,254.461,258.727)">
			<stop offset=".689" stop-color="#000d26"/>
			<stop offset=".916" stop-color="#8ab6f9"/>
			<stop offset="1" stop-color="#cadcfc"/>
		</radialGradient>
		<radialGradient id="g32" cx="0" cy="0" r="1" gradientUnits="userSpaceOnUse" gradientTransform="matrix(9.058,49.187,-49.187,9.058,254.461,258.726)">
			<stop offset=".689" stop-color="#000d26"/>
			<stop offset=".916" stop-color="#8ab6f9"/>
			<stop offset="1" stop-color="#cadcfc"/>
		</radialGradient>
		<radialGradient id="g33" cx="0" cy="0" r="1" gradientUnits="userSpaceOnUse" gradientTransform="matrix(9.058,49.188,-49.188,9.058,254.461,258.726)">
			<stop offset=".689" stop-color="#000d26"/>
			<stop offset=".916" stop-color="#8ab6f9"/>
			<stop offset="1" stop-color="#cadcfc"/>
		</radialGradient>
		<radialGradient id="g34" cx="0" cy="0" r="1" gradientUnits="userSpaceOnUse" gradientTransform="matrix(9.058,49.186,-49.186,9.058,254.461,258.727)">
			<stop offset=".689" stop-color="#000d26"/>
			<stop offset=".916" stop-color="#8ab6f9"/>
			<stop offset="1" stop-color="#cadcfc"/>
		</radialGradient>
		<radialGradient id="g35" cx="0" cy="0" r="1" gradientUnits="userSpaceOnUse" gradientTransform="matrix(9.058,49.187,-49.187,9.058,254.461,258.727)">
			<stop offset=".689" stop-color="#000d26"/>
			<stop offset=".916" stop-color="#8ab6f9"/>
			<stop offset="1" stop-color="#cadcfc"/>
		</radialGradient>
		<radialGradient id="g36" cx="0" cy="0" r="1" gradientUnits="userSpaceOnUse" gradientTransform="matrix(9.058,49.188,-49.188,9.058,254.461,258.727)">
			<stop offset=".689" stop-color="#000d26"/>
			<stop offset=".916" stop-color="#8ab6f9"/>
			<stop offset="1" stop-color="#cadcfc"/>
		</radialGradient>
		<radialGradient id="g37" cx="0" cy="0" r="1" gradientUnits="userSpaceOnUse" gradientTransform="matrix(9.058,49.187,-49.187,9.058,254.461,258.727)">
			<stop offset=".689" stop-color="#000d26"/>
			<stop offset=".916" stop-color="#8ab6f9"/>
			<stop offset="1" stop-color="#cadcfc"/>
		</radialGradient>
		<radialGradient id="g38" cx="0" cy="0" r="1" gradientUnits="userSpaceOnUse" gradientTransform="matrix(9.058,49.188,-49.188,9.058,254.461,258.727)">
			<stop offset=".689" stop-color="#000d26"/>
			<stop offset=".916" stop-color="#8ab6f9"/>
			<stop offset="1" stop-color="#cadcfc"/>
		</radialGradient>
		<radialGradient id="g39" cx="0" cy="0" r="1" gradientUnits="userSpaceOnUse" gradientTransform="matrix(9.058,49.188,-49.188,9.058,254.461,258.726)">
			<stop offset=".689" stop-color="#000d26"/>
			<stop offset=".916" stop-color="#8ab6f9"/>
			<stop offset="1" stop-color="#cadcfc"/>
		</radialGradient>
		<radialGradient id="g40" cx="0" cy="0" r="1" gradientUnits="userSpaceOnUse" gradientTransform="matrix(9.058,49.188,-49.188,9.058,254.461,258.726)">
			<stop offset=".689" stop-color="#000d26"/>
			<stop offset=".916" stop-color="#8ab6f9"/>
			<stop offset="1" stop-color="#cadcfc"/>
		</radialGradient>
	</defs>
	<style>
		.s0 { fill: url(#g1) } 
		.s1 { fill: url(#g2) } 
		.s2 { fill: url(#g3) } 
		.s3 { fill: url(#g4) } 
		.s4 { fill: url(#g5) } 
		.s5 { fill: url(#g6) } 
		.s6 { fill: url(#g7) } 
		.s7 { fill: url(#g8) } 
		.s8 { fill: url(#g9) } 
		.s9 { fill: url(#g10) } 
		.s10 { fill: url(#g11) } 
		.s11 { fill: url(#g12) } 
		.s12 { fill: url(#g13) } 
		.s13 { fill: url(#g14) } 
		.s14 { fill: url(#g15) } 
		.s15 { fill: url(#g16) } 
		.s16 { fill: url(#g17) } 
		.s17 { fill: url(#g18) } 
		.s18 { fill: url(#g19) } 
		.s19 { fill: url(#g20) } 
		.s20 { fill: url(#g21) } 
		.s21 { fill: url(#g22) } 
		.s22 { fill: url(#g23) } 
		.s23 { fill: url(#g24) } 
		.s24 { fill: url(#g25) } 
		.s25 { fill: url(#g26) } 
		.s26 { fill: url(#g27) } 
		.s27 { fill: url(#g28) } 
		.s28 { fill: url(#g29) } 
		.s29 { fill: url(#g30) } 
		.s30 { fill: url(#g31) } 
		.s31 { fill: url(#g32) } 
		.s32 { fill: url(#g33) } 
		.s33 { fill: url(#g34) } 
		.s34 { fill: url(#g35) } 
		.s35 { fill: url(#g36) } 
		.s36 { fill: url(#g37) } 
		.s37 { fill: url(#g38) } 
		.s38 { fill: url(#g39) } 
		.s39 { fill: url(#g40) } 
		.s40 { fill: #8ab6f9 } 
	</style>
	<g id="&lt;Group&gt;">
		<g id="&lt;Group&gt;">
			<path id="&lt;Path&gt;" class="s0" d="m232.56 174.29l-63.86-116.41c-4.05-7.38-0.81-16.64 6.96-19.88 7.76-3.25 16.63 0.96 19.03 9.03z"/>
			<path id="&lt;Path&gt;" class="s1" d="m186.25 204.86l-120.08-56.64c-7.61-3.59-10.43-12.99-6.06-20.17 4.38-7.19 14.02-9 20.71-3.88z"/>
			<path id="&lt;Path&gt;" class="s2" d="m166.77 256.82l-130.45 24.76c-8.26 1.57-16.07-4.38-16.75-12.77-0.69-8.39 6.05-15.52 14.47-15.31z"/>
			<path id="&lt;Path&gt;" class="s3" d="m181.54 310.3l-90.98 96.7c-5.76 6.13-15.57 5.91-21.05-0.47-5.49-6.39-4.23-16.12 2.7-20.89z"/>
			<path id="&lt;Path&gt;" class="s4" d="m224.93 344.88l-16.76 131.72c-1.06 8.35-9.13 13.93-17.32 11.99-8.19-1.94-12.89-10.56-10.09-18.49z"/>
			<path id="&lt;Path&gt;" class="s5" d="m280.36 347.36l63.86 116.41c4.05 7.38 0.81 16.64-6.96 19.88-7.77 3.24-16.63-0.96-19.03-9.03z"/>
			<path id="&lt;Path&gt;" class="s6" d="m326.66 316.78l120.09 56.65c7.61 3.59 10.43 12.98 6.05 20.17-4.37 7.19-14.02 9-20.7 3.88z"/>
			<path id="&lt;Path&gt;" class="s7" d="m346.15 264.83l130.44-24.76c8.27-1.57 16.08 4.38 16.76 12.77 0.68 8.38-6.06 15.51-14.47 15.3z"/>
			<path id="&lt;Path&gt;" class="s8" d="m331.37 211.35l90.98-96.71c5.77-6.13 15.58-5.9 21.06 0.48 5.49 6.38 4.22 16.11-2.71 20.89z"/>
			<path id="&lt;Path&gt;" class="s9" d="m287.99 176.76l16.76-131.71c1.06-8.35 9.13-13.93 17.31-11.99 8.19 1.94 12.89 10.55 10.09 18.49z"/>
		</g>
		<g id="&lt;Group&gt;">
			<path id="&lt;Path&gt;" class="s10" d="m255.02 226.94l-14.09-132.02c-0.89-8.37 5.67-15.67 14.09-15.67 8.41 0 14.97 7.3 14.08 15.67z"/>
			<path id="&lt;Path&gt;" class="s11" d="m235.84 233.34l-88.99-98.53c-5.64-6.25-4.62-16.01 2.18-20.95h0.01c6.8-4.95 16.4-2.9 20.6 4.39z"/>
			<path id="&lt;Path&gt;" class="s12" d="m224.1 249.79l-129.92-27.41c-8.23-1.74-13.15-10.23-10.55-18.23 2.6-8.01 11.57-11.99 19.25-8.56z"/>
			<path id="&lt;Path&gt;" class="s13" d="m224.26 270l-121.22 54.19c-7.68 3.43-16.64-0.55-19.24-8.55-2.61-8.01 2.31-16.5 10.54-18.24z"/>
			<path id="&lt;Path&gt;" class="s14" d="m236.27 286.25l-66.21 115.09c-4.2 7.3-13.79 9.34-20.6 4.4-6.81-4.95-7.83-14.71-2.19-20.95z"/>
			<path id="&lt;Path&gt;" class="s15" d="m255.54 292.35l14.08 132.02c0.89 8.37-5.66 15.67-14.08 15.67-8.42 0-14.98-7.3-14.08-15.67z"/>
			<path id="&lt;Path&gt;" class="s16" d="m274.71 285.95l89 98.53c5.64 6.25 4.62 16-2.19 20.95-6.81 4.95-16.4 2.9-20.6-4.39z"/>
			<path id="&lt;Path&gt;" class="s17" d="m286.46 269.5l129.92 27.41c8.23 1.73 13.14 10.23 10.54 18.23-2.6 8-11.56 11.99-19.25 8.55z"/>
			<path id="&lt;Path&gt;" class="s18" d="m286.3 249.29l121.21-54.19c7.68-3.44 16.65 0.55 19.25 8.55 2.6 8.01-2.31 16.5-10.54 18.24z"/>
			<path id="&lt;Path&gt;" class="s19" d="m274.29 233.03l66.21-115.09c4.2-7.29 13.79-9.34 20.6-4.39 6.81 4.95 7.83 14.7 2.19 20.95z"/>
		</g>
		<g id="&lt;Group&gt;">
			<path id="&lt;Path&gt;" class="s20" d="m260.92 240.36l15.09-80.17c0.96-5.08 6.11-8.21 11.06-6.72 4.95 1.49 7.52 6.94 5.51 11.71z"/>
			<path id="&lt;Path&gt;" class="s21" d="m248.5 240.73l-34.91-73.73c-2.21-4.68 0.12-10.24 5-11.94 4.88-1.71 10.16 1.2 11.34 6.23z"/>
			<path id="&lt;Path&gt;" class="s22" d="m238.68 248.32l-71.58-39.13c-4.54-2.48-5.92-8.34-2.98-12.59 2.95-4.25 8.93-5.01 12.84-1.63z"/>
			<path id="&lt;Path&gt;" class="s23" d="m235.19 260.24l-80.9 10.42c-5.13 0.66-9.7-3.27-9.81-8.44-0.12-5.17 4.28-9.3 9.43-8.86z"/>
			<path id="&lt;Path&gt;" class="s24" d="m239.38 271.93l-59.33 55.99c-3.76 3.54-9.77 3.05-12.9-1.07-3.13-4.11-2-10.03 2.42-12.71z"/>
			<path id="&lt;Path&gt;" class="s25" d="m249.64 278.93l-15.09 80.17c-0.96 5.08-6.11 8.21-11.06 6.72-4.96-1.49-7.52-6.95-5.52-11.71z"/>
			<path id="&lt;Path&gt;" class="s26" d="m262.05 278.56l34.91 73.73c2.21 4.67-0.11 10.23-4.99 11.94-4.89 1.7-10.17-1.2-11.35-6.24z"/>
			<path id="&lt;Path&gt;" class="s27" d="m271.88 270.97l71.58 39.12c4.53 2.48 5.92 8.35 2.97 12.6-2.95 4.25-8.93 5-12.84 1.62z"/>
			<path id="&lt;Path&gt;" class="s28" d="m275.36 259.05l80.91-10.42c5.13-0.66 9.7 3.27 9.81 8.44 0.11 5.17-4.28 9.3-9.43 8.86z"/>
			<path id="&lt;Path&gt;" class="s29" d="m271.18 247.35l59.33-55.98c3.76-3.55 9.77-3.05 12.9 1.06 3.13 4.12 2 10.04-2.43 12.72z"/>
		</g>
		<g id="&lt;Group&gt;">
			<path id="&lt;Path&gt;" class="s30" d="m260.6 251.78l18.39-33.89c1.16-2.15 3.93-2.81 5.94-1.42 2.02 1.38 2.38 4.21 0.79 6.06z"/>
			<path id="&lt;Path&gt;" class="s31" d="m254.96 250.15l-5.04-38.22c-0.32-2.42 1.53-4.59 3.97-4.65 2.44-0.06 4.4 2.01 4.2 4.45z"/>
			<path id="&lt;Path&gt;" class="s32" d="m249.45 252.15l-26.55-27.96c-1.69-1.77-1.46-4.61 0.48-6.09 1.94-1.49 4.74-0.96 6.01 1.12z"/>
			<path id="&lt;Path&gt;" class="s33" d="m246.15 257.01l-37.91-7.01c-2.4-0.45-3.89-2.88-3.19-5.22 0.7-2.34 3.27-3.56 5.52-2.62z"/>
			<path id="&lt;Path&gt;" class="s34" d="m246.35 262.87l-34.79 16.62c-2.21 1.05-4.84-0.04-5.65-2.35-0.82-2.3 0.55-4.8 2.93-5.37z"/>
			<path id="&lt;Path&gt;" class="s35" d="m249.95 267.51l-18.38 33.89c-1.17 2.14-3.94 2.81-5.95 1.42-2.01-1.38-2.38-4.21-0.78-6.06z"/>
			<path id="&lt;Path&gt;" class="s36" d="m255.59 269.13l5.05 38.23c0.32 2.42-1.53 4.59-3.97 4.65-2.45 0.06-4.4-2.01-4.21-4.45z"/>
			<path id="&lt;Path&gt;" class="s37" d="m261.11 267.14l26.55 27.95c1.68 1.78 1.46 4.62-0.48 6.1-1.94 1.49-4.74 0.96-6.01-1.13z"/>
			<path id="&lt;Path&gt;" class="s38" d="m264.4 262.28l37.91 7.01c2.41 0.44 3.89 2.87 3.2 5.22-0.7 2.34-3.27 3.56-5.53 2.62z"/>
			<path id="&lt;Path&gt;" class="s39" d="m264.21 256.41l34.79-16.61c2.21-1.05 4.84 0.04 5.65 2.34 0.81 2.31-0.55 4.81-2.93 5.37z"/>
		</g>
		<path id="&lt;Path&gt;" fill-rule="evenodd" class="s40" d="m255.02 53.27c-11.39 0-20.6-9.21-20.6-20.6 0-11.39 9.21-20.6 20.6-20.6 11.39 0 20.6 9.21 20.6 20.6 0 11.39-9.21 20.6-20.6 20.6z"/>
		<path id="&lt;Path&gt;" class="s40" d="m140.48 64.04c6.69 9.2 4.65 22.09-4.56 28.78-9.2 6.68-22.08 4.64-28.77-4.56-6.69-9.21-4.65-22.09 4.56-28.78 9.2-6.68 22.08-4.64 28.77 4.56z"/>
		<path id="&lt;Path&gt;" class="s40" d="m49.59 168.85c10.82 3.51 16.74 15.14 13.23 25.96-3.52 10.82-15.14 16.74-25.96 13.22-10.82-3.51-16.74-15.13-13.23-25.95 3.52-10.83 15.14-16.75 25.96-13.23z"/>
		<path id="&lt;Path&gt;" class="s40" d="m37.67 307.06c10.82-3.51 22.44 2.41 25.95 13.23 3.52 10.82-2.4 22.44-13.22 25.96-10.82 3.51-22.45-2.41-25.96-13.23-3.52-10.82 2.4-22.44 13.23-25.96z"/>
		<path id="&lt;Path&gt;" class="s40" d="m109.26 425.89c6.69-9.2 19.57-11.24 28.77-4.55 9.21 6.68 11.25 19.57 4.56 28.77-6.69 9.21-19.57 11.25-28.77 4.56-9.21-6.69-11.25-19.57-4.56-28.78z"/>
		<path id="&lt;Path&gt;" fill-rule="evenodd" class="s40" d="m257.62 500.55c-11.39 0-20.6-9.21-20.6-20.6 0-11.39 9.21-20.6 20.6-20.6 11.4 0 20.6 9.21 20.6 20.6 0 11.39-9.2 20.6-20.6 20.6z"/>
		<path id="&lt;Path&gt;" class="s40" d="m372.16 448.58c-6.69-9.21-4.65-22.09 4.56-28.78 9.2-6.68 22.08-4.64 28.77 4.56 6.69 9.21 4.65 22.09-4.56 28.78-9.2 6.68-22.08 4.64-28.77-4.56z"/>
		<path id="&lt;Path&gt;" class="s40" d="m463.05 343.77c-10.82-3.52-16.74-15.14-13.23-25.96 3.52-10.82 15.14-16.74 25.96-13.22 10.82 3.51 16.74 15.13 13.23 25.95-3.52 10.82-15.14 16.75-25.96 13.23z"/>
		<path id="&lt;Path&gt;" class="s40" d="m474.98 205.55c-10.82 3.52-22.45-2.4-25.96-13.22-3.52-10.82 2.4-22.44 13.22-25.96 10.82-3.52 22.45 2.41 25.96 13.23 3.52 10.82-2.4 22.44-13.22 25.95z"/>
		<path id="&lt;Path&gt;" class="s40" d="m403.38 86.73c-6.68 9.2-19.57 11.24-28.77 4.55-9.21-6.68-11.25-19.57-4.56-28.77 6.69-9.21 19.57-11.25 28.78-4.56 9.2 6.69 11.24 19.57 4.55 28.78z"/>
	</g>
</svg>