<svg width="128" height="128" viewBox="0 0 128 128" fill="none" xmlns="http://www.w3.org/2000/svg">
  <rect width="128" height="128" fill="#05070C"/>
  <g transform="translate(64 64)">
    <circle cx="0" cy="-40" r="2.6" fill="#EAF2FF"/>
    <circle cx="10.35" cy="-38.64" r="2.45" fill="#DCE8FF"/>
    <circle cx="20" cy="-34.64" r="2.4" fill="#CFE0FF"/>
    <circle cx="28.28" cy="-28.28" r="2.3" fill="#BCD3FF"/>
    <circle cx="34.64" cy="-20" r="2.25" fill="#A9C5FF"/>
    <circle cx="38.64" cy="-10.35" r="2.15" fill="#98B9FF"/>
    <circle cx="40" cy="0" r="2.1" fill="#87ACFF"/>
    <circle cx="38.64" cy="10.35" r="2.15" fill="#79A2FF"/>
    <circle cx="34.64" cy="20" r="2.25" fill="#6997FF"/>
    <circle cx="28.28" cy="28.28" r="2.3" fill="#5D8FFF"/>
    <circle cx="20" cy="34.64" r="2.4" fill="#6C9BFF"/>
    <circle cx="10.35" cy="38.64" r="2.45" fill="#8BB0FF"/>
    <circle cx="0" cy="40" r="2.6" fill="#B2CBFF"/>
    <circle cx="-10.35" cy="38.64" r="2.45" fill="#C2D8FF"/>
    <circle cx="-20" cy="34.64" r="2.4" fill="#D4E3FF"/>
    <circle cx="-28.28" cy="28.28" r="2.3" fill="#E5EEFF"/>
    <circle cx="-34.64" cy="20" r="2.25" fill="#D8E7FF"/>
    <circle cx="-38.64" cy="10.35" r="2.15" fill="#C5D9FF"/>
    <circle cx="-40" cy="0" r="2.1" fill="#AFC8FF"/>
    <circle cx="-38.64" cy="-10.35" r="2.15" fill="#C0D5FF"/>
    <circle cx="-34.64" cy="-20" r="2.25" fill="#D0E1FF"/>
    <circle cx="-28.28" cy="-28.28" r="2.3" fill="#E3EDFF"/>
    <circle cx="-20" cy="-34.64" r="2.4" fill="#F0F6FF"/>
    <circle cx="-10.35" cy="-38.64" r="2.45" fill="#F6FAFF"/>

    <circle cx="0" cy="-29.5" r="2.2" fill="#E3EDFF"/>
    <circle cx="7.63" cy="-28.5" r="2.05" fill="#D4E3FF"/>
    <circle cx="14.75" cy="-25.55" r="1.95" fill="#C6D9FF"/>
    <circle cx="20.86" cy="-20.86" r="1.85" fill="#B5CEFF"/>
    <circle cx="25.55" cy="-14.75" r="1.8" fill="#A2C0FF"/>
    <circle cx="28.5" cy="-7.63" r="1.7" fill="#8EB2FF"/>
    <circle cx="29.5" cy="0" r="1.65" fill="#7DA6FF"/>
    <circle cx="28.5" cy="7.63" r="1.7" fill="#709DFF"/>
    <circle cx="25.55" cy="14.75" r="1.8" fill="#5F91FF"/>
    <circle cx="20.86" cy="20.86" r="1.85" fill="#568BFF"/>
    <circle cx="14.75" cy="25.55" r="1.95" fill="#6294FF"/>
    <circle cx="7.63" cy="28.5" r="2.05" fill="#79A5FF"/>
    <circle cx="0" cy="29.5" r="2.2" fill="#96B8FF"/>
    <circle cx="-7.63" cy="28.5" r="2.05" fill="#AFC8FF"/>
    <circle cx="-14.75" cy="25.55" r="1.95" fill="#C7DAFF"/>
    <circle cx="-20.86" cy="20.86" r="1.85" fill="#DCE8FF"/>
    <circle cx="-25.55" cy="14.75" r="1.8" fill="#CFE0FF"/>
    <circle cx="-28.5" cy="7.63" r="1.7" fill="#BED4FF"/>
    <circle cx="-29.5" cy="0" r="1.65" fill="#ABC5FF"/>
    <circle cx="-28.5" cy="-7.63" r="1.7" fill="#BCD2FF"/>
    <circle cx="-25.55" cy="-14.75" r="1.8" fill="#D0E1FF"/>
    <circle cx="-20.86" cy="-20.86" r="1.85" fill="#E0EBFF"/>
    <circle cx="-14.75" cy="-25.55" r="1.95" fill="#EDF4FF"/>
    <circle cx="-7.63" cy="-28.5" r="2.05" fill="#F7FAFF"/>

    <circle cx="0" cy="-18.5" r="1.7" fill="#EDF4FF"/>
    <circle cx="4.79" cy="-17.87" r="1.55" fill="#DCE8FF"/>
    <circle cx="9.25" cy="-16.02" r="1.45" fill="#CFE0FF"/>
    <circle cx="13.08" cy="-13.08" r="1.35" fill="#BED4FF"/>
    <circle cx="16.02" cy="-9.25" r="1.28" fill="#ACC6FF"/>
    <circle cx="17.87" cy="-4.79" r="1.2" fill="#98B8FF"/>
    <circle cx="18.5" cy="0" r="1.15" fill="#85ABFF"/>
    <circle cx="17.87" cy="4.79" r="1.2" fill="#76A0FF"/>
    <circle cx="16.02" cy="9.25" r="1.28" fill="#6797FF"/>
    <circle cx="13.08" cy="13.08" r="1.35" fill="#5E91FF"/>
    <circle cx="9.25" cy="16.02" r="1.45" fill="#6D9DFF"/>
    <circle cx="4.79" cy="17.87" r="1.55" fill="#88B0FF"/>
    <circle cx="0" cy="18.5" r="1.7" fill="#A8C5FF"/>
    <circle cx="-4.79" cy="17.87" r="1.55" fill="#BFD5FF"/>
    <circle cx="-9.25" cy="16.02" r="1.45" fill="#D4E3FF"/>
    <circle cx="-13.08" cy="13.08" r="1.35" fill="#E6EFFF"/>
    <circle cx="-16.02" cy="9.25" r="1.28" fill="#D7E6FF"/>
    <circle cx="-17.87" cy="4.79" r="1.2" fill="#C9DCFF"/>
    <circle cx="-18.5" cy="0" r="1.15" fill="#B8D0FF"/>
    <circle cx="-17.87" cy="-4.79" r="1.2" fill="#CBDEFF"/>
    <circle cx="-16.02" cy="-9.25" r="1.28" fill="#DCE8FF"/>
    <circle cx="-13.08" cy="-13.08" r="1.35" fill="#ECF3FF"/>
    <circle cx="-9.25" cy="-16.02" r="1.45" fill="#F7FAFF"/>
    <circle cx="-4.79" cy="-17.87" r="1.55" fill="#FCFEFF"/>

    <circle r="4.2" fill="#F8FBFF"/>
  </g>
</svg>
